<?xml version="1.0" encoding="UTF-8" standalone="no"?>
<svg
   xmlns:vectornator="http://vectornator.io"
   xmlns:dc="http://purl.org/dc/elements/1.1/"
   xmlns:cc="http://creativecommons.org/ns#"
   xmlns:rdf="http://www.w3.org/1999/02/22-rdf-syntax-ns#"
   xmlns:svg="http://www.w3.org/2000/svg"
   xmlns="http://www.w3.org/2000/svg"
   xmlns:sodipodi="http://sodipodi.sourceforge.net/DTD/sodipodi-0.dtd"
   xmlns:inkscape="http://www.inkscape.org/namespaces/inkscape"
   height="800"
   style="clip-rule:evenodd;fill-rule:evenodd;stroke-linecap:round;stroke-linejoin:round"
   xml:space="preserve"
   width="800"
   version="1.1"
   viewBox="0 0 800 800"
   id="svg640"
   sodipodi:docname="froghop.svg"
   inkscape:version="1.0.1 (3bc2e813f5, 2020-09-07)"><sodipodi:namedview
   pagecolor="#ffffff"
   bordercolor="#666666"
   borderopacity="1"
   objecttolerance="10"
   gridtolerance="10"
   guidetolerance="10"
   inkscape:pageopacity="0"
   inkscape:pageshadow="2"
   inkscape:window-width="2560"
   inkscape:window-height="1377"
   id="namedview642"
   showgrid="false"
   inkscape:zoom="0.97145341"
   inkscape:cx="551.48248"
   inkscape:cy="520.446"
   inkscape:window-x="-8"
   inkscape:window-y="-8"
   inkscape:window-maximized="1"
   inkscape:current-layer="svg640" />
<metadata
   id="metadata327">
<vectornator:setting
   key="DimensionsVisible"
   value="1" />
<vectornator:setting
   key="Units"
   value="Inches" />
<vectornator:setting
   key="SnapToPoints"
   value="0" />
<vectornator:setting
   key="GuidesVisible"
   value="1" />
<vectornator:setting
   key="RulersVisible"
   value="1" />
<vectornator:setting
   key="CMYKEnabledKey"
   value="0" />
<vectornator:setting
   key="SnapToEdges"
   value="0" />
<vectornator:setting
   key="DisplayWhiteBackground"
   value="0" />
<vectornator:setting
   key="SnapToGuides"
   value="0" />
<vectornator:setting
   key="GridSpacing"
   value="36" />
<vectornator:setting
   key="SnapToGrid"
   value="0" />
<vectornator:setting
   key="DynamicGuides"
   value="0" />
<vectornator:setting
   key="New"
   value="1" />
<rdf:RDF><cc:Work
     rdf:about=""><dc:format>image/svg+xml</dc:format><dc:type
       rdf:resource="http://purl.org/dc/dcmitype/StillImage" /><dc:title></dc:title></cc:Work></rdf:RDF></metadata>
<defs
   id="defs329">




































































































































</defs>
<g
   id="g926"
   transform="matrix(0.91720454,0,0,0.91720454,-372.43991,-162.64071)"><path
     stroke="#000000"
     stroke-width="5"
     d="m 735.24,961.788 c 2.1,-4.083 5.699,-7.435 7.732,-11.242 -29.397,-46.384 -49.26,-92.029 -78.237,-140.717 0.48,0.6 0.92,1.598 1.082,2.145 -4.003,-10.448 -10.12,-18.2 -15.034,-26.522 -15.382,-27.715 -26.598,-55.949 -50.362,-76.769 -6.504,-4.94 -14.558,-9.1 -22.68,-7.518 -40.971,11.732 -51.241,63.784 -57.735,102.961 6.901,53.738 28.888,108.263 56.096,152.958 2.48,6.347 1.107,-3.419 0.605,2.524 1.662,-3.264 5.618,-5.97 9.264,-4.952 -1.161,-0.32 -6.345,-2.327 -4.367,-1.35 -31.735,-20.163 -67.563,-42.325 -82.028,-75.2 -10.194,-2.991 -14.395,8.119 -20.569,13.745 20.873,42.367 63.589,69.516 103.337,88.087 4.597,0.66 9.534,-0.853 12.786,-4.529 4.478,-5.998 6.836,-14.348 5.549,-22.032 -32.369,-65.27 -86.063,-152.97 -27.83,-220.879 0.565,-1.506 12.269,-6.681 8.496,-4.746 7.236,2.912 11.828,12.546 19.017,18.07 42.839,72.608 78.097,149.677 121.773,219.034 4.341,-1.07 8.978,-1.207 13.105,-3.068"
     fill="#090a0a"
     stroke-linecap="round"
     opacity="1"
     stroke-linejoin="round"
     id="path383" /><path
     stroke="#000000"
     stroke-width="5"
     d="m 492.571,889.582 c -2.25,-2.836 -13.778,-1.626 -10.953,-5.372 -21.175,27.82 -26.063,65.909 -39.254,98.531 -0.053,0.156 -0.106,0.313 -0.159,0.469 7.835,2.7 15.669,5.399 23.504,8.099 0,-10e-4 0,-0.003 10e-4,-0.004 10.912,-32.668 20.561,-69.908 38.153,-95.713 -3.636,-2.047 -7.514,-4.056 -11.292,-6.01"
     fill="#090a0a"
     stroke-linecap="round"
     opacity="1"
     stroke-linejoin="round"
     id="path385" /><path
     stroke="#000000"
     stroke-width="5"
     d="m 495.842,891.677 c -3.102,-2.794 -6.196,-6.23 -9.306,-8.549 -20.679,28.354 -24.716,66.671 -35.607,100.17 8.028,1.92 16.055,3.84 24.082,5.76 7.437,-29.034 16.228,-64.249 29.359,-87.367 -2.765,-3.344 -5.654,-6.715 -8.528,-10.014"
     fill="#090a0a"
     stroke-linecap="round"
     opacity="1"
     stroke-linejoin="round"
     id="path387" /><path
     stroke="#000000"
     stroke-width="5"
     d="m 500.566,906.332 c 22.059,-5.049 1.16,-14.766 -0.481,-25.498 -6.943,4.656 -13.885,9.312 -20.828,13.967 2.635,5.362 5.003,12.473 10.277,16.464 -3.233,-2.858 -2.628,-2.832 -0.388,0.768 3.979,-1.21 7.62,-3.843 11.42,-5.701"
     fill="#090a0a"
     stroke-linecap="round"
     opacity="1"
     stroke-linejoin="round"
     id="path389" /><path
     stroke="#000000"
     stroke-width="5"
     d="m 499.425,877.858 c -1.524,-3.7 -5.071,-0.28 -7.35,1.101 -4.88,2.959 -12.267,9.255 -14.322,15.069"
     fill="#090a0a"
     stroke-linecap="round"
     opacity="1"
     stroke-linejoin="round"
     id="path391" /><path
     stroke="#000000"
     stroke-width="5"
     d="m 497.206,877.276 c -4.33,-1.797 -15.137,8.748 -16.721,13.226"
     fill="#090a0a"
     stroke-linecap="round"
     opacity="1"
     stroke-linejoin="round"
     id="path393" /><path
     stroke="#000000"
     stroke-width="5"
     d="m 497.808,876.679 c -3.538,-1.468 -10.358,2.481 -12.729,5.477 -1.869,2.362 -2.676,5.619 -4.463,7.976"
     fill="#090a0a"
     stroke-linecap="round"
     opacity="1"
     stroke-linejoin="round"
     id="path395" /><path
     stroke="#000000"
     stroke-width="5"
     d="m 497.818,876.429 c -6.972,-1.721 -15.308,7.685 -17.511,13.914"
     fill="#090a0a"
     stroke-linecap="round"
     opacity="1"
     stroke-linejoin="round"
     id="path397" /><path
     stroke="#000000"
     stroke-width="5"
     d="m 496.164,874.472 c -7.802,1.649 -17.214,12.41 -19.936,20.109"
     fill="#090a0a"
     stroke-linecap="round"
     opacity="1"
     stroke-linejoin="round"
     id="path399" /><path
     stroke="#000000"
     stroke-width="5"
     d="m 490.927,874.613 c -5.484,4.514 -11.067,10.803 -13.339,17.228"
     fill="#090a0a"
     stroke-linecap="round"
     opacity="1"
     stroke-linejoin="round"
     id="path401" /><path
     stroke="#000000"
     stroke-width="5"
     d="m 496.586,871.512 c 1.07,5.134 3.803,9.513 5.753,14.25"
     fill="#090a0a"
     stroke-linecap="round"
     opacity="1"
     stroke-linejoin="round"
     id="path403" /><path
     stroke="#000000"
     stroke-width="5"
     d="m 497.295,872.823 c 2.018,3.907 3.64,8.458 4.891,12.706"
     fill="#090a0a"
     stroke-linecap="round"
     opacity="1"
     stroke-linejoin="round"
     id="path405" /><path
     stroke="#000000"
     stroke-width="5"
     d="m 495.68,872.746 c -0.658,1.214 -3.034,2.996 -3.828,3.748"
     fill="#090a0a"
     stroke-linecap="round"
     opacity="1"
     stroke-linejoin="round"
     id="path407" /><path
     stroke="#000000"
     stroke-width="5"
     d="m 496.829,873.477 c -0.292,-0.888 -0.581,-1.901 -0.653,-2.884"
     fill="#090a0a"
     stroke-linecap="round"
     opacity="1"
     stroke-linejoin="round"
     id="path409" /><path
     stroke="#000000"
     stroke-width="5"
     d="m 492.251,874.19 c -0.055,0.09 -0.099,0.162 -0.129,0.214"
     fill="#090a0a"
     stroke-linecap="round"
     opacity="1"
     stroke-linejoin="round"
     id="path411" /><path
     stroke="#000000"
     stroke-width="5"
     d="m 496.769,870.605 c -0.167,2.897 1.337,6.947 1.74,8.737"
     fill="#090a0a"
     stroke-linecap="round"
     opacity="1"
     stroke-linejoin="round"
     id="path413" /><path
     stroke="#000000"
     stroke-width="5"
     d="m 496.906,870.849 c 0.205,5.636 2.51,13.564 5.206,18.208"
     fill="#090a0a"
     stroke-linecap="round"
     opacity="1"
     stroke-linejoin="round"
     id="path415" /><path
     stroke="#000000"
     stroke-width="5"
     d="m 496.378,870.449 c 1.601,3.214 2.874,7.004 3.564,10.59"
     fill="#090a0a"
     stroke-linecap="round"
     opacity="1"
     stroke-linejoin="round"
     id="path417" /><path
     stroke="#000000"
     stroke-width="5"
     d="m 497.653,872.241 c 1.003,4.007 2.811,7.662 3.86,11.653"
     fill="#090a0a"
     stroke-linecap="round"
     opacity="1"
     stroke-linejoin="round"
     id="path419" /><path
     stroke="#000000"
     stroke-width="5"
     d="m 495.02,871.174 c -0.302,1.017 -1.971,2.053 -2.761,2.62"
     fill="#090a0a"
     stroke-linecap="round"
     opacity="1"
     stroke-linejoin="round"
     id="path421" /><path
     stroke="#000000"
     stroke-width="5"
     d="m 490.493,873.833 c 0.521,-1.094 5.645,-5.79 6.443,-5.822 0.223,-0.009 0.857,3.917 0.848,4.406"
     fill="#090a0a"
     stroke-linecap="round"
     opacity="1"
     stroke-linejoin="round"
     id="path423" /><path
     stroke="#000000"
     stroke-width="5"
     d="m 493.75,871.479 c -2.58,0.59 -5.38,5.613 -7.126,7.546"
     fill="#090a0a"
     stroke-linecap="round"
     opacity="1"
     stroke-linejoin="round"
     id="path425" /><path
     stroke="#000000"
     stroke-width="5"
     d="m 442.672,999.22 c 1.422,-3.025 8.851,-3.259 11.607,-4.089 7.994,-2.405 17.312,-2.629 25.525,-2.039 4.164,0.298 9.195,2.621 13.294,1.704"
     fill="#090a0a"
     stroke-linecap="round"
     opacity="1"
     stroke-linejoin="round"
     id="path427" /><path
     stroke="#000000"
     stroke-width="5"
     d="m 442.89,1002.29 c 0.748,0.72 1.896,2.33 2.597,3.44"
     fill="#090a0a"
     stroke-linecap="round"
     opacity="1"
     stroke-linejoin="round"
     id="path429" /><path
     stroke="#000000"
     stroke-width="5"
     d="m 450.557,1005.47 c 16.825,-4.81 34.378,-5.549 50.614,-1.3 0.09,0.03 0.179,0.06 0.269,0.09 0.885,-3.72 1.77,-7.439 2.655,-11.158 -0.058,-0.014 -0.115,-0.028 -0.173,-0.043 -21.409,-4.629 -43.438,-4.879 -63.782,4.255 0.74,1.688 1.817,3.336 2.75,4.976"
     fill="#090a0a"
     stroke-linecap="round"
     opacity="1"
     stroke-linejoin="round"
     id="path431" /><path
     stroke="#000000"
     stroke-width="5"
     d="m 442.926,1003.37 c -0.642,-5.916 -0.298,-11.924 0.937,-17.739 0.544,-2.565 2.048,-4.894 2.404,-7.46"
     fill="#090a0a"
     stroke-linecap="round"
     opacity="1"
     stroke-linejoin="round"
     id="path433" /><path
     stroke="#000000"
     stroke-width="5"
     d="m 442.948,981.714 c -0.678,1.442 -1.843,3.19 -2.104,4.811 -0.508,3.157 -1.026,6.521 -0.882,9.75 0.117,2.634 0.519,5.205 0.731,7.825"
     fill="#090a0a"
     stroke-linecap="round"
     opacity="1"
     stroke-linejoin="round"
     id="path435" /><path
     stroke="#000000"
     stroke-width="5"
     d="m 446.649,1005 c 1.452,-0.8 3.107,-1.14 4.595,-1.9 0.44,-0.23 4.213,-1.3 4.309,-1.47 0.096,-0.16 -0.178,-0.37 -0.343,-0.44 -0.347,-0.15 -2.861,0.73 -3.332,0.89 -2.048,0.72 -3.712,2.47 -5.614,3.49"
     fill="#090a0a"
     stroke-linecap="round"
     opacity="1"
     stroke-linejoin="round"
     id="path437" /><path
     stroke="#000000"
     stroke-width="5"
     d="m 440.303,1006.1 c 1.068,-1.43 1.703,-3.27 2.199,-5.01 0.454,-1.597 1.011,-3.115 1.882,-4.508"
     fill="#090a0a"
     stroke-linecap="round"
     opacity="1"
     stroke-linejoin="round"
     id="path439" /><path
     stroke="#000000"
     stroke-width="5"
     d="m 438.814,1006.44 c -0.272,-3.23 0.017,-6.16 0.39,-9.389 0.729,-6.317 1.641,-12.035 4.325,-17.746"
     fill="#090a0a"
     stroke-linecap="round"
     opacity="1"
     stroke-linejoin="round"
     id="path441" /><path
     stroke="#000000"
     stroke-width="5"
     d="m 456.746,987.706 c -2.962,0.531 -8.179,0.923 -10.784,3.007"
     fill="#090a0a"
     stroke-linecap="round"
     opacity="1"
     stroke-linejoin="round"
     id="path443" /><path
     stroke="#000000"
     stroke-width="5"
     d="m 459.742,985.52 c -3.744,0.982 -7.81,2.323 -11.232,4.296 -0.368,0.212 -2.768,2.006 -2.527,2.359 0.124,0.181 0.948,-0.344 1.7,-0.768"
     fill="#090a0a"
     stroke-linecap="round"
     opacity="1"
     stroke-linejoin="round"
     id="path445" /><path
     stroke="#000000"
     stroke-width="5"
     d="m 460.043,987.392 c -3.029,1.261 -6.314,1.835 -9.433,2.814 -0.852,0.268 -2.339,0.714 -3.209,1.131 -0.308,0.147 -0.599,0.338 -0.882,0.537 -0.15,0.105 -0.588,0.359 -0.411,0.37 0.551,0.035 1.09,-0.195 1.634,-0.293"
     fill="#090a0a"
     stroke-linecap="round"
     opacity="1"
     stroke-linejoin="round"
     id="path447" /><path
     stroke="#000000"
     stroke-width="26.27"
     d="m 595.056,1020.34 c -4.471,1.83 -8.783,2.73 -13.584,2.42 -3.335,-0.22 -6.64,-1.47 -9.994,-1.8 -18.775,-1.82 -36.122,-10.35 -54.311,-14.88"
     fill="#090a0a"
     stroke-linecap="round"
     opacity="1"
     stroke-linejoin="round"
     id="path449" /><path
     stroke="#000000"
     stroke-width="26.27"
     d="m 530.362,1003.28 c -4.985,-2.95 -9.945,-4.513 -15.397,-6.028 -3.341,-0.929 -6.637,-2.749 -10.054,-3.416 -2.612,-0.511 -5.426,-0.153 -8.064,-0.257 -0.813,-0.032 -1.626,-0.052 -2.438,-0.096 -0.565,-0.031 -2.234,-0.299 -1.691,-0.129 2.993,0.937 6.337,0.676 9.246,1.828 6.411,2.538 12.456,5.398 19.182,7.078 1.006,0.25 7.721,1.11 7.75,1.89 0.022,0.61 -1.131,-0.04 -1.691,-0.13 -0.824,-0.12 -1.628,-0.39 -2.454,-0.5 -3.796,-0.52 -7.113,-1.58 -10.772,-2.57 -2.004,-0.55 -4.348,-0.52 -6.403,-0.94 -2.743,-0.561 -5.238,-1.962 -7.96,-2.493 -1.988,-0.388 -3.991,-0.202 -6.014,-0.549 -0.515,-0.089 -6.067,-0.814 -5.865,-1.57 0.157,-0.588 1.129,0.06 1.69,0.129 2.827,0.345 5.691,0.885 8.483,1.455 3.424,0.7 6.324,2.642 9.516,4.048 1.79,0.79 3.544,0.59 5.297,1.39 3.068,1.42 5.859,2.48 9.112,3.26 7.332,1.75 14.634,3.66 21.933,5.53 2.107,0.54 4.277,0.17 6.389,0.54 3.415,0.58 6.491,2.46 9.86,3.22 1.659,0.37 3.219,0.28 4.892,0.6 9.138,1.7 17.852,5.3 27.155,4.9 1.854,-0.08 3.63,0.66 5.461,0.77 2.129,0.14 4.249,-0.72 6.327,-1.08 4.383,-0.77 8.692,-1.77 12.177,-5 4.741,-4.4 6.55,-9.31 8.223,-15.58 0.206,-0.77 0.944,-3.409 0.972,-4.101 0.244,-6.179 -3.245,-11.974 -6.065,-16.985 -1.957,-3.48 -4.157,-7.275 -6.929,-10.046 -0.843,-0.843 -1.686,-1.685 -2.529,-2.528 -0.454,-0.454 -1.781,-0.869 -1.362,-1.361 0.435,-0.511 1.147,0.626 1.721,0.939 0.573,0.314 1.162,0.595 1.72,0.94 2.973,1.837 5.453,5.06 7.962,7.566 0.389,0.389 0.842,0.714 1.167,1.167 0.342,0.477 0.831,2.192 0.808,1.588 -0.065,-1.756 -1.352,-3.195 -2.051,-4.781 -0.902,-2.047 -1.628,-4.621 -2.68,-6.579 -1.255,-2.337 -3.26,-4.273 -4.37,-6.709 -1.201,-2.636 -1.313,-6.072 -2.202,-8.833 -0.689,-2.137 -1.744,-4.265 -2.486,-6.385 -1.319,-3.773 -2.104,-7.556 -3.234,-11.426 -1.403,-4.801 -3.754,-9.288 -5.39,-13.969 -0.711,-2.032 -0.821,-4.342 -1.364,-6.435 -0.556,-2.144 -1.513,-4.016 -1.917,-6.207 -0.638,-3.469 -0.635,-6.997 -0.766,-10.519 -0.153,-4.107 -1.421,-7.986 -1.574,-12.107 -0.025,-0.675 -0.018,-1.353 -0.076,-2.026 -0.052,-0.609 -0.817,-1.877 -0.255,-1.815 1.767,0.195 2.398,7.19 2.756,8.606 1.436,5.686 1.121,11.703 2.518,17.342 0.726,2.926 2.13,5.343 2.561,8.411 0.085,0.605 0.783,1.598 0.255,1.815 -2.418,0.993 -3.441,-7.416 -3.892,-8.962"
     fill="#090a0a"
     stroke-linecap="round"
     opacity="1"
     stroke-linejoin="round"
     id="path451" /><path
     stroke="#000000"
     stroke-width="26.27"
     d="m 544.56,956.996 c -3.444,-3.442 -6.756,-7.473 -10.505,-10.499 -2.633,-2.124 -5.746,-3.697 -8.455,-5.719 -4.177,-3.117 -8.37,-6.253 -12.525,-9.396 -3.449,-2.61 -6.989,-7.011 -11.342,-7.825 -4.701,-0.878 -8.147,3.298 -10.799,6.763 -4.369,5.705 -3.152,13.958 -4.662,20.7 -1.989,8.884 -4.537,18.016 -10.315,24.802"
     fill="#090a0a"
     stroke-linecap="round"
     opacity="1"
     stroke-linejoin="round"
     id="path453" /><path
     stroke="#000000"
     stroke-width="26.27"
     d="m 607.928,893.145 c 1.619,2.257 2.063,5.255 3.473,7.763 2.559,4.547 5.848,8.575 9.444,12.169"
     fill="#090a0a"
     stroke-linecap="round"
     opacity="1"
     stroke-linejoin="round"
     id="path455" /><path
     stroke="#000000"
     stroke-width="26.27"
     d="m 659.247,908.152 c -8.339,-11.628 -12.611,-26.283 -18.697,-39.363 -3.936,-8.458 -7.532,-16.807 -10.51,-25.719 -3.068,-9.179 -5.491,-18.286 -5.544,-28.168 -0.009,-1.622 0.153,-9.043 2.076,-9.629 2.745,-0.836 6.284,3.939 7.886,5.541 5.283,5.28 9.298,11.697 12.677,18.521 5.577,11.26 9.276,23.307 14.223,34.892 3.462,8.104 8.267,15.441 12.29,23.206 2.508,4.84 4.814,9.833 7.29,14.698 3.519,6.914 6.908,13.822 9.776,21.084 1.403,3.554 2.827,6.587 2.262,10.453"
     fill="#090a0a"
     stroke-linecap="round"
     opacity="1"
     stroke-linejoin="round"
     id="path457" /><path
     stroke="#000000"
     stroke-width="26.27"
     d="m 626.666,782.273 c -5.039,7.845 -10.078,15.69 -15.117,23.535 -1.868,2.909 -4.095,5.815 -5.711,8.892 -2.173,4.138 -3.951,8.853 -5.627,13.223 -1.907,4.97 -4.242,9.774 -6.226,14.713 -3.858,9.602 -6.679,19.642 -9.681,29.574 -2.481,8.208 -6.07,16.15 -9.334,24.014 -0.872,2.101 -2.433,5.965 -4.849,6.435 -1.54,0.299 -4.692,-1.235 -5.5,-2.594 -1.193,-2.006 0.016,-4.785 0.295,-7.152 1.189,-10.082 4.922,-19.387 6.984,-29.279 1.997,-9.583 4.167,-19.234 5.997,-28.858 2.884,-15.178 4.365,-30.6 7.206,-45.801 1.916,-10.25 4.796,-19.944 7.729,-29.881 1.645,-5.576 3.121,-9.88 6.225,-14.713"
     fill="#090a0a"
     stroke-linecap="round"
     opacity="1"
     stroke-linejoin="round"
     id="path459" /><path
     stroke="#000000"
     stroke-width="26.27"
     d="m 638.627,806.04 c -8.382,13.051 -17.552,25.61 -25.436,39.044 -2.815,4.797 -4.617,10.245 -6.971,15.315 -1.72,3.706 -4.016,7.08 -6.068,10.563 -2.098,3.562 -3.667,7.631 -5.511,11.37 -2.104,4.264 -2.911,8.989 -4.085,13.61 -0.762,2.999 -1.705,5.777 -2.121,8.88 -0.56,4.175 -1.59,7.993 -2.668,11.962 -0.185,0.683 0.092,1.53 -0.283,2.115 -1.567,2.439 -3.147,0.115 -4.051,-1.502 -1.625,-2.905 -0.298,-7.898 -0.125,-10.961 0.304,-5.384 -0.01,-10.655 0.296,-16.079 0.552,-9.764 1.775,-19.209 5.01,-28.437 5.988,-17.081 15.059,-32.693 22.279,-49.187 4.05,-9.254 8.576,-17.682 9.733,-27.982 0.394,-3.512 1.036,-6.342 -1.468,-8.87"
     fill="#090a0a"
     stroke-linecap="round"
     opacity="1"
     stroke-linejoin="round"
     id="path461" /><path
     stroke="#000000"
     stroke-width="26.27"
     d="m 576.406,724.969 c -6.323,9.845 -14.856,20.492 -18.844,31.593 -1.102,3.07 -1.439,6.41 -2.218,9.594 -1.764,7.206 -3.752,14.86 -4.344,22.344 -0.639,8.074 0.38,16.293 0.875,24.312 0.267,4.324 0.146,8.669 0.25,13 0.174,7.219 0.401,14.467 0.406,21.688 0.002,2.889 -0.139,8.352 0.219,11.375 0.471,3.979 1.842,5.953 4.906,8 0.673,0.449 1.326,1.388 2.094,1.187 0.595,-0.155 1.819,-3.2 2.094,-3.843 0.46,-1.078 0.912,-2.174 1.375,-3.25 3.298,-7.674 5.327,-16.135 7.375,-24.313 1.154,-4.608 2.466,-9.159 3.75,-13.718 0.314,4.404 0.894,8.757 1.25,13.187 0.63,7.854 1.242,15.743 3.218,23.406 1,3.875 3.33,7.241 4.376,11.063 1.218,4.454 1.004,9.296 1.874,13.844 0.876,4.572 2.776,8.354 3.032,13.124 0.119,2.229 0.339,5.425 -0.25,7.594 -0.169,0.62 -0.686,1.108 -0.75,1.75 -0.151,1.493 0.474,2.96 0.718,4.438 l 19.844,-36.125 c -2.28,-1.778 -4.553,-3.586 -6.844,-5.313 -2.045,-1.542 -6.905,-3.964 -7.843,-6.687 -1.159,-3.363 6.009,-12.529 7.281,-15.844 0.929,-2.422 1.081,-5.117 1.688,-7.656 1.686,-7.062 2.122,-15.344 0.5,-22.531 -0.754,-3.34 -2.223,-6.055 -3.407,-9.188 -1.449,-3.835 -1.666,-7.966 -4.187,-11.312 -1.596,-2.118 -4.802,-5.481 -7.594,-4.938 -2.33,0.453 -5.245,3.548 -7.719,7.094 0.172,-1.056 0.376,-2.101 0.563,-3.156 1.12,-6.323 3.13,-12.387 4.75,-18.563 2.121,-8.088 4.309,-15.998 6.781,-23.969 1.508,-4.862 2.499,-10.102 4.781,-14.656 1.356,-2.707 3.22,-5.066 4.844,-7.594 z m 31.25,150.25 c 3.076,2.398 6.2,4.74 9.375,6.937 l -9.625,-3.187 c 3.425,3.422 6.574,10.115 7.688,15.093 0.439,1.964 0.489,4.071 0.968,6.032 0.749,3.06 3.039,5.413 4.063,8.344 0.649,1.856 0.851,3.955 1.5,5.812 1.304,3.729 3.412,7.231 4.719,10.969 1.708,4.886 3.079,9.981 5.062,14.781 3.178,7.693 7.76,14.56 11.656,21.812 1.94,3.611 3.605,7.566 5.688,11.126 3.667,6.265 8.927,11.291 13.344,16.874 5.828,7.368 11.312,14.958 18.406,21.098 3.161,2.73 6.901,4.26 10.344,6.47 6.781,4.34 13.4,10.69 21.281,12.65 13.452,3.35 28.584,1 39.75,-8.22 3.988,-3.29 7.45,-6.64 10.844,-10.62 0.949,-1.12 2.581,-2.49 3.25,-3.81 1.911,-3.79 2.328,-10.913 1.312,-15.068 -2.792,-11.42 -10.715,-20.518 -17.937,-28.843 -3.072,-3.542 -5.625,-7.479 -8.469,-11.188 -1.476,-1.925 -3.547,-3.547 -5.25,-5.25 -2.644,-2.643 -5.187,-5.5 -7.969,-7.969 -4.112,-3.649 -8.563,-6.77 -12.218,-11.031 -4.454,-5.19 -7.159,-11.437 -11.126,-16.969 l -64.25,-21.281 c 0.047,-0.087 0.074,-0.2 0.126,-0.281 2.68,-4.173 4.223,-8.763 4.25,-13.875 0.031,-5.939 -0.522,-11.474 -1.376,-17.344 -1.6,-11.016 -2.55,-22.367 -8.656,-31.75 z M 493,954.438 c -1.769,0.121 -3.468,0.422 -5.062,0.968 -4.646,1.594 -8.1,6.55 -11.25,10.25 -1.63,1.914 -3.028,2.929 -3.126,5.813 -0.155,4.626 6.906,11.154 10.219,13.343 3.254,2.151 6.769,2.376 10.407,3 2.767,0.475 3.368,1.001 6.218,1.157 2.981,0.162 6.007,-0.3 9,0 2.074,0.208 4.137,0.708 6.219,0.75 4.46,0.089 8.796,-0.595 13.281,-0.375 4.062,0.199 7.765,-0.335 11.782,-0.719 0.448,-0.043 3.275,-0.232 3.718,0.25 l -2.812,3.75 c 1.082,-0.444 2.2,-0.595 2.718,-1.937 0.219,-0.565 0.501,-1.355 0.126,-1.813 l 18.75,-24.969 c -2.284,-2.282 -5.523,-2.32 -8.532,-2.687 -5.083,-0.622 -10.182,-0.943 -15.25,-1.563 -10.104,-1.235 -20.367,-1.798 -30.468,-3.531 -4.793,-0.822 -10.631,-2.053 -15.938,-1.687 z"
     fill="#090a0a"
     stroke-linecap="round"
     opacity="1"
     stroke-linejoin="round"
     id="path463" /><path
     stroke="#000000"
     stroke-width="26.27"
     d="m 611.477,871.737 c 5.45,-8.485 10.557,-23.793 11.644,-34.304 0.696,-6.732 -0.801,-14.797 -2.054,-21.344 -1.073,-5.604 -3.905,-10.752 -5.823,-16.034 -2.647,-7.289 -4.631,-15.495 -9.474,-21.503"
     fill="#090a0a"
     stroke-linecap="round"
     opacity="1"
     stroke-linejoin="round"
     id="path465" /><path
     stroke="#000000"
     stroke-width="5"
     d="m 461.049,990.532 c -0.879,-0.647 -2.049,-0.271 -3.09,-0.2 -3.032,0.208 -5.605,1.395 -8.484,2.303 -1.176,0.371 -2.293,0.884 -3.521,0.977 -0.164,0.013 -0.461,0.228 -0.492,0.053 -0.059,-0.335 2.218,-1.681 2.456,-1.843 1.77,-1.208 3.58,-2.66 4.76,-4.544 0.061,-0.097 1.035,-1.382 0.855,-1.61 -0.443,-0.561 -1.726,0.25 -2.111,0.438 -1.748,0.852 -3.305,1.865 -4.593,3.422 -0.368,0.445 -0.521,0.709 -0.799,1.154 -0.083,0.133 -0.127,0.487 -0.249,0.397 -0.661,-0.485 0.049,-2.678 0.181,-3.1 0.594,-1.901 1.494,-3.669 2.168,-5.537 0.142,-0.393 0.33,-0.769 0.431,-1.177 0.052,-0.208 0.204,-0.735 0.022,-0.646 -1.251,0.61 -2.868,4.589 -3.347,5.831 -0.322,0.836 -0.682,1.655 -1.02,2.484 -0.131,0.32 -0.621,1.195 -0.376,0.967 1.491,-1.383 2.066,-3.888 2.381,-5.878 0.081,-0.512 0.159,-2.205 0.157,-2.206 -0.178,-0.131 -0.373,0.277 -0.46,0.49 -0.115,0.281 -0.063,0.611 -0.112,0.913 -0.304,1.859 -0.678,3.699 -1.027,5.548 -0.136,0.724 -0.268,1.449 -0.438,2.165 -0.048,0.205 -0.287,1.237 -0.114,1.16 0.385,-0.17 1.071,-1.629 1.28,-2.044 0.103,-0.202 0.439,-1.155 0.395,-1.119 -0.436,0.361 -0.616,0.984 -0.924,1.476 -0.842,1.343 -1.56,2.262 -1.084,3.93"
     fill="#090a0a"
     stroke-linecap="round"
     opacity="1"
     stroke-linejoin="round"
     id="path467" /><path
     stroke="#000000"
     stroke-width="5"
     d="m 450.646,1004.94 c -1.215,0.13 -2.424,-0.02 -3.637,0.06 -1.185,0.08 -2.35,0.33 -3.534,0.39 -0.815,0.04 -1.679,-0.05 -2.478,0.17 -0.433,0.11 -0.957,0.37 -0.758,0.35 0.506,-0.05 0.974,-0.34 1.479,-0.4 2.229,-0.3 4.526,-0.15 6.732,-0.61 0.873,-0.18 1.745,-0.26 2.62,-0.39 0.207,-0.04 0.409,-0.1 0.616,-0.13 0.134,-0.02 0.538,-0.02 0.404,-0.04 -1.304,-0.19 -2.676,0.76 -3.924,1.02 -1.559,0.32 -3.348,0.35 -4.921,0.27 -0.839,-0.04 -1.541,0.24 -2.323,0.54 -0.446,0.16 -1.126,0.42 -1.074,0.37 0.67,-0.72 2.237,-0.73 3.098,-0.79 1.866,-0.15 4.031,-0.25 5.837,-0.77 1.538,-0.44 3.056,-0.61 4.61,-1.01 0.378,-0.09 0.759,-0.18 1.144,-0.23 0.134,-0.02 0.379,-0.18 0.404,-0.04 0.086,0.49 -2.308,1.03 -2.678,1.1 -1.126,0.24 -2.447,0.52 -3.588,0.6 -0.806,0.05 -1.623,-0.16 -2.424,-0.04 -0.695,0.1 -1.247,0.42 -1.971,0.45 -1.093,0.06 -2.049,0.04 -3.129,0.36 -0.277,0.08 -1.088,0.4 -0.811,0.31 3.391,-1 7.064,-1.09 10.534,-1.54 1.078,-0.14 2.178,-0.24 3.236,-0.52 0.689,-0.18 0.108,-0.15 1.056,-0.22 0.151,-0.01 0.581,-0.09 0.456,0 -1.021,0.79 -2.632,0.94 -3.82,1.09 -0.58,0.08 -1.167,0.34 -1.742,0.46 -0.667,0.14 -1.31,0.01 -1.967,-0.03 -1.247,-0.1 -2.625,0.46 -3.852,0.65 -0.801,0.12 -1.62,0.08 -2.426,0.2 -0.097,0.02 -0.988,0.23 -1.02,0.17 -0.02,-0.04 0.73,-0.3 1.338,-0.43 1.353,-0.28 2.702,-0.3 4.028,-0.69 3.106,-0.9 6.41,-1.61 9.572,-2.08 0.933,-0.14 1.806,-0.67 2.729,-0.81 1.074,-0.17 2.169,-0.31 3.253,-0.43 0.164,-0.02 0.5,0.12 0.492,-0.05 -0.027,-0.63 -1.811,-0.08 -1.967,-0.04 -1.576,0.38 -3.147,1.17 -4.719,1.42 -1.072,0.18 -1.918,0.7 -2.976,0.97 -1.01,0.24 -1.971,0.39 -2.974,0.71 -0.974,0.31 -1.918,0.03 -2.899,0.11 -0.728,0.05 -1.437,0.55 -2.165,0.64 -0.53,0.07 -1.1,-0.04 -1.634,0.05 -1.094,0.17 -1.998,0.61 -3.132,0.6"
     fill="#090a0a"
     stroke-linecap="round"
     opacity="1"
     stroke-linejoin="round"
     id="path469" /><path
     stroke="#000000"
     stroke-width="5"
     d="m 629.26,993.719 c -0.451,-4.729 -1.371,-13.739 -2.853,-18.266 -0.6,-1.831 -1.52,-3.565 -2.381,-5.284 -0.188,-0.374 -0.788,-0.773 -0.563,-1.122 0.202,-0.314 1.422,1.012 1.513,1.144 0.803,1.171 1.236,2.827 1.635,4.197 1.437,4.937 2.398,9.876 3.028,15.003 0.066,0.54 -0.277,5.392 -0.379,4.328 z"
     fill="#090a0a"
     stroke-linecap="round"
     opacity="1"
     stroke-linejoin="round"
     id="path471" /><path
     stroke="#000000"
     stroke-width="5"
     d="m 625.421,1002.92 c 0.997,-1.55 2.941,-3.604 3.471,-5.387 0.959,-3.234 -0.607,-7.577 -0.919,-10.795 -0.397,-4.108 -0.261,-9.194 -1.676,-13.11 -1.877,-5.192 -4.87,-9.898 -6.904,-14.974 -7.663,-19.125 -15.016,-39.028 -14.596,-60.149"
     fill="#090a0a"
     stroke-linecap="round"
     opacity="1"
     stroke-linejoin="round"
     id="path473" /><path
     stroke="#000000"
     stroke-width="5"
     d="m 599.836,903.459 c -0.149,7.506 2.849,14.406 5.097,21.269 5.085,15.525 13.429,29.896 19.503,45.054 3.309,8.258 6.085,19.711 4.144,28.734 -1.12,5.204 -4.709,9.554 -7.478,13.844"
     fill="#090a0a"
     stroke-linecap="round"
     opacity="1"
     stroke-linejoin="round"
     id="path475" /><path
     stroke="#000000"
     stroke-width="5"
     d="m 600.503,1022.38 c -1.715,1.9 -5.18,1.54 -7.458,1.84 -6.606,0.89 -13.283,-0.89 -19.813,-1.93 -3.402,-0.54 -6.888,-0.51 -10.247,-1.31 -7.466,-1.76 -14.879,-3.79 -22.375,-5.43 -2.96,-0.65 -6.161,-0.88 -9.028,-1.95 -12.725,-4.75 -25.397,-9.28 -38.458,-12.9"
     fill="#090a0a"
     stroke-linecap="round"
     opacity="1"
     stroke-linejoin="round"
     id="path477" /><path
     stroke="#000000"
     stroke-width="5"
     d="m 493.782,1000.67 c 3.305,2.5 6.465,2.37 10.206,3.37 1.496,0.4 2.801,1.33 4.202,1.96 2.814,1.26 6.098,1.44 9.06,2.15 2.017,0.49 3.829,1.54 5.811,1.96"
     fill="#090a0a"
     stroke-linecap="round"
     opacity="1"
     stroke-linejoin="round"
     id="path479" /><path
     stroke="#000000"
     stroke-width="5"
     d="m 538.141,998.184 c -3.609,-2.73 -7.325,-5.279 -10.654,-8.408"
     fill="#090a0a"
     stroke-linecap="round"
     opacity="1"
     stroke-linejoin="round"
     id="path481" /><path
     stroke="#000000"
     stroke-width="5"
     d="m 542.124,998.238 c -5.541,-4.193 -10.802,-8.025 -15.452,-13.432"
     fill="#090a0a"
     stroke-linecap="round"
     opacity="1"
     stroke-linejoin="round"
     id="path483" /><path
     stroke="#000000"
     stroke-width="5"
     d="m 533.9,1000.03 c -4.933,-3.736 -8.755,-8.985 -10.186,-15.372"
     fill="#090a0a"
     stroke-linecap="round"
     opacity="1"
     stroke-linejoin="round"
     id="path485" /><path
     stroke="#000000"
     stroke-width="5"
     d="m 537.849,998.138 c -4.442,-3.361 -8.354,-8.237 -11.587,-12.945"
     fill="#090a0a"
     stroke-linecap="round"
     opacity="1"
     stroke-linejoin="round"
     id="path487" /><path
     stroke="#000000"
     stroke-width="5"
     d="m 535.819,997.298 c -3.907,-3.447 -11.21,-11.971 -10.211,-17.824"
     fill="#090a0a"
     stroke-linecap="round"
     opacity="1"
     stroke-linejoin="round"
     id="path489" /><path
     stroke="#000000"
     stroke-width="5"
     d="m 537.763,998.77 c -2.836,-2.146 -2.781,-7.625 -3.152,-10.57 -0.789,-6.248 1.945,-11.746 5.121,-16.674"
     fill="#090a0a"
     stroke-linecap="round"
     opacity="1"
     stroke-linejoin="round"
     id="path491" /><path
     stroke="#000000"
     stroke-width="25.69"
     d="m 540.092,995.655 c 7.353,-4.327 14.543,-8.985 21.837,-13.431"
     fill="#090a0a"
     stroke-linecap="round"
     opacity="1"
     stroke-linejoin="round"
     id="path493" /><path
     stroke="#000000"
     stroke-width="25.69"
     d="m 518.053,1005.68 c -1.445,-1.11 -3.418,-0.03 -5.03,-0.57 -1.546,-0.51 -2.593,-2.08 -4.247,-2.51 -1.816,-0.47 -3.684,-0.71 -5.516,-1.2 -1.721,-0.46 -3.153,-1.953 -4.782,-2.687 -0.947,-0.427 -1.938,-0.34 -2.906,-0.628 -2.413,-0.716 -4.806,-2.416 -7.104,-3.587 -1.82,-0.927 -7.974,-4.172 -9.57,-3.012"
     fill="#090a0a"
     stroke-linecap="round"
     opacity="1"
     stroke-linejoin="round"
     id="path495" /><path
     stroke="#000000"
     stroke-width="25.69"
     d="m 633.364,946.203 c -3.728,-4.163 -6.017,-9.339 -8.928,-14.101 -5.074,-8.299 -8.763,-17.542 -11.298,-27.076 -1.635,-6.153 -3.956,-11.789 -4.106,-18.311"
     fill="#090a0a"
     stroke-linecap="round"
     opacity="1"
     stroke-linejoin="round"
     id="path497" /><path
     stroke="#000000"
     stroke-width="25.69"
     d="m 639.592,956.698 c -2.255,-2.518 -3.774,-5.018 -5.593,-7.868"
     fill="#090a0a"
     stroke-linecap="round"
     opacity="1"
     stroke-linejoin="round"
     id="path499" /><path
     stroke="#000000"
     stroke-width="25.69"
     d="m 679.353,1007.91 c 1.588,2.45 2.827,5.32 4.665,7.58 3.066,3.77 7.531,5.62 11.61,7.73 4.972,2.58 9.985,5.87 15.479,6.91 0.493,0.09 -0.97,-0.28 -1.427,-0.5 -0.756,-0.37 -1.511,-0.7 -2.272,-1.06 -2.435,-1.14 -4.951,-1.87 -7.342,-3.03 -2.639,-1.27 -5.841,-2.25 -8.17,-4.12 -2.872,-2.3 -6.172,-6.15 -9.674,-6.81"
     fill="#090a0a"
     stroke-linecap="round"
     opacity="1"
     stroke-linejoin="round"
     id="path501" /><path
     stroke="#000000"
     stroke-width="5"
     d="m 943.034,961.34 c -2.071,-4.101 -5.646,-7.482 -7.652,-11.307 29.727,-46.137 49.913,-91.614 79.238,-140.058 -0.49,0.595 -0.93,1.59 -1.1,2.135 4.08,-10.414 10.25,-18.115 15.22,-26.396 15.58,-27.585 27,-55.724 50.91,-76.345 6.54,-4.886 14.62,-8.978 22.73,-7.328 40.89,12.074 50.79,64.21 57,103.44 -7.28,53.679 -29.65,108.019 -57.18,152.485 -2.52,6.326 -1.08,-3.428 -0.62,2.518 -1.64,-3.277 -5.58,-6.016 -9.23,-5.029 1.16,-0.31 6.36,-2.273 4.38,-1.314 31.87,-19.896 67.86,-41.759 82.56,-74.512 10.21,-2.905 14.33,8.24 20.47,13.917 -21.18,42.191 -64.08,68.983 -103.96,87.221 -4.61,0.621 -9.53,-0.933 -12.76,-4.636 -4.43,-6.036 -6.73,-14.404 -5.39,-22.078 32.83,-64.998 87.15,-152.246 29.4,-220.639 -0.55,-1.511 -12.22,-6.783 -8.46,-4.817 -7.26,2.851 -11.92,12.447 -19.15,17.91 -43.35,72.248 -79.16,149.021 -123.323,218.011 -4.333,-1.107 -8.969,-1.282 -13.083,-3.178"
     fill="#090a0a"
     stroke-linecap="round"
     opacity="1"
     stroke-linejoin="round"
     id="path503" /><path
     stroke="#000000"
     stroke-width="5"
     d="m 1186.21,891.164 c 2.27,-2.818 13.79,-1.511 10.99,-5.281 20.98,27.996 25.59,66.125 38.55,98.856 0.05,0.157 0.11,0.314 0.16,0.471 -7.86,2.634 -15.71,5.268 -23.56,7.902 0,-10e-4 0,-0.003 0,-0.004 -10.68,-32.758 -20.07,-70.077 -37.48,-96.029 3.66,-2.017 7.55,-3.993 11.34,-5.915"
     fill="#090a0a"
     stroke-linecap="round"
     opacity="1"
     stroke-linejoin="round"
     id="path505" /><path
     stroke="#000000"
     stroke-width="5"
     d="m 1182.92,893.231 c 3.13,-2.768 6.24,-6.178 9.37,-8.471 20.48,28.526 24.24,66.876 34.89,100.465 -8.04,1.853 -16.08,3.705 -24.12,5.558 -7.23,-29.095 -15.77,-64.382 -28.74,-87.61 2.79,-3.32 5.71,-6.667 8.6,-9.942"
     fill="#090a0a"
     stroke-linecap="round"
     opacity="1"
     stroke-linejoin="round"
     id="path507" /><path
     stroke="#000000"
     stroke-width="5"
     d="m 1178.1,907.846 c -22.03,-5.233 -1.06,-14.775 0.66,-25.492 6.91,4.713 13.82,9.427 20.73,14.14 -2.68,5.339 -5.1,12.431 -10.4,16.377 3.26,-2.83 2.65,-2.809 0.38,0.771 -3.97,-1.243 -7.59,-3.906 -11.37,-5.796"
     fill="#090a0a"
     stroke-linecap="round"
     opacity="1"
     stroke-linejoin="round"
     id="path509" /><path
     stroke="#000000"
     stroke-width="5"
     d="m 1179.44,879.383 c 1.55,-3.687 5.07,-0.238 7.34,1.163 4.86,2.999 12.2,9.357 14.22,15.187"
     fill="#090a0a"
     stroke-linecap="round"
     opacity="1"
     stroke-linejoin="round"
     id="path511" /><path
     stroke="#000000"
     stroke-width="5"
     d="m 1181.66,878.82 c 4.34,-1.761 15.08,8.873 16.63,13.364"
     fill="#090a0a"
     stroke-linecap="round"
     opacity="1"
     stroke-linejoin="round"
     id="path513" /><path
     stroke="#000000"
     stroke-width="5"
     d="m 1181.06,878.217 c 3.55,-1.439 10.34,2.568 12.69,5.584 1.86,2.377 2.64,5.641 4.41,8.013"
     fill="#090a0a"
     stroke-linecap="round"
     opacity="1"
     stroke-linejoin="round"
     id="path515" /><path
     stroke="#000000"
     stroke-width="5"
     d="m 1181.06,877.967 c 6.98,-1.662 15.25,7.812 17.41,14.06"
     fill="#090a0a"
     stroke-linecap="round"
     opacity="1"
     stroke-linejoin="round"
     id="path517" /><path
     stroke="#000000"
     stroke-width="5"
     d="m 1182.72,876.024 c 7.79,1.715 17.13,12.553 19.8,20.275"
     fill="#090a0a"
     stroke-linecap="round"
     opacity="1"
     stroke-linejoin="round"
     id="path519" /><path
     stroke="#000000"
     stroke-width="5"
     d="m 1187.96,876.209 c 5.45,4.56 10.99,10.894 13.22,17.339"
     fill="#090a0a"
     stroke-linecap="round"
     opacity="1"
     stroke-linejoin="round"
     id="path521" /><path
     stroke="#000000"
     stroke-width="5"
     d="m 1182.32,873.06 c -1.1,5.125 -3.87,9.481 -5.85,14.202"
     fill="#090a0a"
     stroke-linecap="round"
     opacity="1"
     stroke-linejoin="round"
     id="path523" /><path
     stroke="#000000"
     stroke-width="5"
     d="m 1181.6,874.365 c -2.04,3.891 -3.7,8.427 -4.98,12.665"
     fill="#090a0a"
     stroke-linecap="round"
     opacity="1"
     stroke-linejoin="round"
     id="path525" /><path
     stroke="#000000"
     stroke-width="5"
     d="m 1183.22,874.302 c 0.65,1.219 3.01,3.022 3.8,3.78"
     fill="#090a0a"
     stroke-linecap="round"
     opacity="1"
     stroke-linejoin="round"
     id="path527" /><path
     stroke="#000000"
     stroke-width="5"
     d="m 1182.07,875.023 c 0.29,-0.885 0.59,-1.895 0.67,-2.878"
     fill="#090a0a"
     stroke-linecap="round"
     opacity="1"
     stroke-linejoin="round"
     id="path529" /><path
     stroke="#000000"
     stroke-width="5"
     d="m 1186.64,875.775 c 0.05,0.09 0.1,0.162 0.13,0.214"
     fill="#090a0a"
     stroke-linecap="round"
     opacity="1"
     stroke-linejoin="round"
     id="path531" /><path
     stroke="#000000"
     stroke-width="5"
     d="m 1182.15,872.152 c 0.14,2.898 -1.39,6.935 -1.81,8.723"
     fill="#090a0a"
     stroke-linecap="round"
     opacity="1"
     stroke-linejoin="round"
     id="path533" /><path
     stroke="#000000"
     stroke-width="5"
     d="m 1182.01,872.395 c -0.25,5.634 -2.61,13.543 -5.34,18.164"
     fill="#090a0a"
     stroke-linecap="round"
     opacity="1"
     stroke-linejoin="round"
     id="path535" /><path
     stroke="#000000"
     stroke-width="5"
     d="m 1182.54,871.999 c -1.62,3.201 -2.93,6.98 -3.64,10.56"
     fill="#090a0a"
     stroke-linecap="round"
     opacity="1"
     stroke-linejoin="round"
     id="path537" /><path
     stroke="#000000"
     stroke-width="5"
     d="m 1181.25,873.781 c -1.03,3.998 -2.86,7.638 -3.94,11.62"
     fill="#090a0a"
     stroke-linecap="round"
     opacity="1"
     stroke-linejoin="round"
     id="path539" /><path
     stroke="#000000"
     stroke-width="5"
     d="m 1183.89,872.736 c 0.3,1.019 1.96,2.069 2.74,2.643"
     fill="#090a0a"
     stroke-linecap="round"
     opacity="1"
     stroke-linejoin="round"
     id="path541" /><path
     stroke="#000000"
     stroke-width="5"
     d="m 1188.4,875.432 c -0.51,-1.098 -5.6,-5.836 -6.4,-5.875 -0.22,-0.011 -0.89,3.909 -0.88,4.399"
     fill="#090a0a"
     stroke-linecap="round"
     opacity="1"
     stroke-linejoin="round"
     id="path543" /><path
     stroke="#000000"
     stroke-width="5"
     d="m 1185.16,873.052 c 2.57,0.611 5.34,5.657 7.07,7.605"
     fill="#090a0a"
     stroke-linecap="round"
     opacity="1"
     stroke-linejoin="round"
     id="path545" /><path
     stroke="#000000"
     stroke-width="5"
     d="m 1235.33,1001.22 c -1.4,-3.041 -8.83,-3.338 -11.58,-4.19 -7.98,-2.473 -17.29,-2.774 -25.51,-2.253 -4.17,0.264 -9.21,2.544 -13.31,1.593"
     fill="#090a0a"
     stroke-linecap="round"
     opacity="1"
     stroke-linejoin="round"
     id="path547" /><path
     stroke="#000000"
     stroke-width="5"
     d="m 1235.09,1004.28 c -0.76,0.72 -1.92,2.32 -2.62,3.42"
     fill="#090a0a"
     stroke-linecap="round"
     opacity="1"
     stroke-linejoin="round"
     id="path549" /><path
     stroke="#000000"
     stroke-width="5"
     d="m 1227.4,1007.4 c -16.79,-4.95 -34.34,-5.84 -50.61,-1.72 -0.09,0.03 -0.18,0.06 -0.27,0.08 -0.85,-3.72 -1.71,-7.449 -2.57,-11.176 0.06,-0.014 0.11,-0.027 0.17,-0.041 21.44,-4.45 43.47,-4.517 63.75,4.787 -0.75,1.68 -1.84,3.32 -2.78,4.95"
     fill="#090a0a"
     stroke-linecap="round"
     opacity="1"
     stroke-linejoin="round"
     id="path551" /><path
     stroke="#000000"
     stroke-width="5"
     d="m 1235.04,1005.36 c 0.69,-5.907 0.39,-11.919 -0.81,-17.743 -0.52,-2.57 -2.01,-4.912 -2.35,-7.48"
     fill="#090a0a"
     stroke-linecap="round"
     opacity="1"
     stroke-linejoin="round"
     id="path553" /><path
     stroke="#000000"
     stroke-width="5"
     d="m 1235.18,983.707 c 0.66,1.448 1.82,3.206 2.06,4.829 0.49,3.161 0.98,6.529 0.82,9.757 -0.14,2.637 -0.56,5.197 -0.79,7.817"
     fill="#090a0a"
     stroke-linecap="round"
     opacity="1"
     stroke-linejoin="round"
     id="path555" /><path
     stroke="#000000"
     stroke-width="5"
     d="m 1231.31,1006.96 c -1.45,-0.81 -3.1,-1.16 -4.58,-1.94 -0.44,-0.23 -4.21,-1.34 -4.3,-1.5 -0.1,-0.16 0.18,-0.37 0.34,-0.44 0.35,-0.15 2.86,0.75 3.33,0.92 2.04,0.74 3.69,2.49 5.59,3.54"
     fill="#090a0a"
     stroke-linecap="round"
     opacity="1"
     stroke-linejoin="round"
     id="path557" /><path
     stroke="#000000"
     stroke-width="5"
     d="m 1237.65,1008.12 c -1.06,-1.45 -1.68,-3.29 -2.17,-5.03 -0.44,-1.6 -0.99,-3.126 -1.85,-4.527"
     fill="#090a0a"
     stroke-linecap="round"
     opacity="1"
     stroke-linejoin="round"
     id="path559" /><path
     stroke="#000000"
     stroke-width="5"
     d="m 1239.13,1008.47 c 0.3,-3.23 0.03,-6.16 -0.32,-9.395 -0.68,-6.323 -1.56,-12.048 -4.2,-17.782"
     fill="#090a0a"
     stroke-linecap="round"
     opacity="1"
     stroke-linejoin="round"
     id="path561" /><path
     stroke="#000000"
     stroke-width="5"
     d="m 1221.34,989.584 c 2.95,0.555 8.17,0.991 10.76,3.097"
     fill="#090a0a"
     stroke-linecap="round"
     opacity="1"
     stroke-linejoin="round"
     id="path563" /><path
     stroke="#000000"
     stroke-width="5"
     d="m 1218.36,987.373 c 3.73,1.013 7.79,2.388 11.2,4.389 0.36,0.216 2.75,2.03 2.51,2.381 -0.13,0.18 -0.95,-0.352 -1.7,-0.782"
     fill="#090a0a"
     stroke-linecap="round"
     opacity="1"
     stroke-linejoin="round"
     id="path565" /><path
     stroke="#000000"
     stroke-width="5"
     d="m 1218.04,989.243 c 3.02,1.286 6.3,1.887 9.41,2.893 0.85,0.274 2.34,0.733 3.2,1.157 0.31,0.15 0.6,0.343 0.88,0.544 0.15,0.106 0.59,0.364 0.41,0.374 -0.55,0.03 -1.09,-0.204 -1.63,-0.307"
     fill="#090a0a"
     stroke-linecap="round"
     opacity="1"
     stroke-linejoin="round"
     id="path567" /><path
     stroke="#000000"
     stroke-width="26.27"
     d="m 1082.8,1021.06 c 4.45,1.87 8.76,2.8 13.56,2.53 3.34,-0.19 6.65,-1.41 10.01,-1.71 18.79,-1.67 36.19,-10.05 54.41,-14.42"
     fill="#090a0a"
     stroke-linecap="round"
     opacity="1"
     stroke-linejoin="round"
     id="path569" /><path
     stroke="#000000"
     stroke-width="26.27"
     d="m 1147.61,1004.54 c 5.01,-2.91 9.98,-4.43 15.44,-5.897 3.35,-0.901 6.66,-2.693 10.08,-3.332 2.61,-0.488 5.42,-0.107 8.06,-0.189 0.82,-0.026 1.63,-0.039 2.44,-0.076 0.57,-0.026 2.24,-0.281 1.69,-0.115 -3,0.912 -6.34,0.623 -9.25,1.751 -6.43,2.484 -12.5,5.298 -19.24,6.918 -1,0.24 -7.73,1.05 -7.76,1.83 -0.03,0.61 1.13,-0.04 1.69,-0.12 0.83,-0.12 1.63,-0.37 2.46,-0.48 3.8,-0.48 7.12,-1.52 10.79,-2.48 2.01,-0.53 4.35,-0.48 6.41,-0.89 2.75,-0.53 5.25,-1.915 7.98,-2.424 1.99,-0.371 3.99,-0.168 6.01,-0.498 0.52,-0.085 6.08,-0.763 5.88,-1.522 -0.15,-0.589 -1.13,0.051 -1.69,0.115 -2.83,0.322 -5.7,0.838 -8.49,1.385 -3.43,0.672 -6.35,2.594 -9.55,3.974 -1.79,0.77 -3.55,0.55 -5.3,1.34 -3.08,1.39 -5.88,2.43 -9.14,3.18 -7.34,1.69 -14.66,3.54 -21.97,5.35 -2.11,0.53 -4.28,0.14 -6.39,0.48 -3.42,0.56 -6.51,2.41 -9.89,3.14 -1.66,0.36 -3.22,0.26 -4.89,0.56 -9.15,1.63 -17.89,5.16 -27.19,4.67 -1.86,-0.09 -3.64,0.63 -5.47,0.73 -2.13,0.12 -4.24,-0.76 -6.32,-1.14 -4.37,-0.8 -8.68,-1.83 -12.14,-5.09 -4.71,-4.45 -6.48,-9.37 -8.11,-15.65 -0.2,-0.774 -0.92,-3.419 -0.94,-4.111 -0.2,-6.181 3.33,-11.946 6.18,-16.933 1.98,-3.464 4.21,-7.241 7,-9.989 0.85,-0.835 1.7,-1.671 2.55,-2.506 0.46,-0.45 1.79,-0.855 1.37,-1.35 -0.43,-0.515 -1.15,0.617 -1.73,0.925 -0.57,0.309 -1.16,0.585 -1.72,0.925 -2.99,1.812 -5.49,5.014 -8.02,7.5 -0.39,0.386 -0.85,0.707 -1.17,1.157 -0.35,0.474 -0.85,2.185 -0.82,1.581 0.07,-1.755 1.37,-3.183 2.08,-4.763 0.92,-2.041 1.66,-4.608 2.73,-6.557 1.27,-2.326 3.29,-4.245 4.42,-6.672 1.22,-2.626 1.35,-6.061 2.26,-8.814 0.7,-2.132 1.78,-4.251 2.53,-6.365 1.35,-3.762 2.16,-7.538 3.32,-11.398 1.43,-4.79 3.82,-9.257 5.49,-13.924 0.72,-2.026 0.85,-4.335 1.41,-6.423 0.57,-2.14 1.54,-4.004 1.96,-6.191 0.66,-3.464 0.68,-6.992 0.84,-10.512 0.18,-4.106 1.48,-7.974 1.66,-12.094 0.03,-0.675 0.03,-1.353 0.09,-2.025 0.06,-0.609 0.83,-1.87 0.27,-1.813 -1.77,0.18 -2.45,7.17 -2.82,8.582 -1.48,5.674 -1.2,11.694 -2.64,17.321 -0.75,2.92 -2.17,5.325 -2.62,8.389 -0.09,0.605 -0.8,1.592 -0.27,1.813 2.41,1.013 3.49,-7.387 3.96,-8.929"
     fill="#090a0a"
     stroke-linecap="round"
     opacity="1"
     stroke-linejoin="round"
     id="path571" /><path
     stroke="#000000"
     stroke-width="26.27"
     d="m 1115.08,964.884 c 2.3,-2.263 5.54,-2.258 8.55,-2.6 5.09,-0.579 10.17,-0.863 15.24,-1.44 10.11,-1.15 20.38,-1.635 30.5,-3.284 6.4,-1.043 14.65,-2.77 21.01,-0.53 4.63,1.632 8.03,6.599 11.16,10.325 1.61,1.927 3.03,2.962 3.11,5.846 0.12,4.628 -7,11.104 -10.33,13.266 -3.27,2.123 -6.79,2.314 -10.44,2.908 -2.77,0.452 -3.38,0.965 -6.23,1.096 -2.98,0.138 -5.99,-0.337 -8.99,-0.062 -2.07,0.191 -4.13,0.668 -6.21,0.692 -4.46,0.052 -8.8,-0.671 -13.28,-0.489 -4.07,0.165 -7.76,-0.398 -11.77,-0.815 -0.45,-0.047 -3.35,-0.283 -3.76,0.21 -0.38,0.455 -0.11,1.266 0.11,1.833 0.51,1.346 1.64,1.515 2.72,1.968"
     fill="#090a0a"
     stroke-linecap="round"
     opacity="1"
     stroke-linejoin="round"
     id="path573" /><path
     stroke="#000000"
     stroke-width="26.27"
     d="m 1133.74,958.141 c 3.47,-3.413 6.81,-7.416 10.58,-10.411 2.65,-2.102 5.77,-3.649 8.5,-5.648 4.2,-3.082 8.41,-6.183 12.59,-9.291 3.47,-2.581 7.04,-6.953 11.4,-7.73 4.7,-0.839 8.12,3.366 10.75,6.853 4.32,5.742 3.05,13.984 4.51,20.738 1.93,8.9 4.41,18.053 10.14,24.888"
     fill="#090a0a"
     stroke-linecap="round"
     opacity="1"
     stroke-linejoin="round"
     id="path575" /><path
     stroke="#000000"
     stroke-width="26.27"
     d="m 1070.83,893.763 c -1.63,2.243 -2.1,5.237 -3.53,7.733 -2.59,4.526 -5.91,8.526 -9.53,12.09"
     fill="#090a0a"
     stroke-linecap="round"
     opacity="1"
     stroke-linejoin="round"
     id="path577" /><path
     stroke="#000000"
     stroke-width="26.27"
     d="m 1071.46,879.586 c -3.45,3.393 -6.64,10.053 -7.79,15.022 -0.45,1.96 -0.52,4.081 -1.01,6.037 -0.77,3.055 -3.08,5.391 -4.12,8.312 -0.66,1.851 -0.91,3.954 -1.57,5.805 -1.33,3.718 -3.46,7.189 -4.79,10.916 -1.75,4.872 -3.14,9.97 -5.15,14.754 -3.24,7.666 -7.89,14.494 -11.84,21.714 -1.96,3.593 -3.62,7.527 -5.73,11.069 -3.71,6.235 -9.03,11.21 -13.49,16.756 -5.88,7.319 -11.4,14.879 -18.54,20.959 -3.18,2.71 -6.942,4.18 -10.4,6.36 -6.812,4.29 -13.458,10.59 -21.352,12.49 -13.476,3.24 -28.618,0.74 -39.718,-8.56 -3.964,-3.33 -7.402,-6.7 -10.767,-10.71 -0.942,-1.13 -2.544,-2.49 -3.203,-3.83 -1.885,-3.8 -2.25,-10.934 -1.205,-15.08 2.874,-11.397 10.855,-20.429 18.136,-28.694 3.097,-3.516 5.681,-7.441 8.551,-11.126 1.489,-1.913 3.574,-3.517 5.29,-5.206 2.663,-2.62 5.234,-5.459 8.032,-7.905 4.138,-3.615 8.604,-6.701 12.29,-10.931 4.49,-5.152 7.235,-11.375 11.241,-16.872"
     fill="#090a0a"
     stroke-linecap="round"
     opacity="1"
     stroke-linejoin="round"
     id="path579" /><path
     stroke="#000000"
     stroke-width="26.27"
     d="m 1019.41,908.341 c 8.42,-11.558 12.79,-26.178 18.97,-39.206 4,-8.425 7.65,-16.744 10.7,-25.631 3.13,-9.153 5.62,-18.24 5.74,-28.121 0.02,-1.621 -0.09,-9.043 -2.01,-9.645 -2.74,-0.859 -6.31,3.886 -7.92,5.474 -5.32,5.236 -9.38,11.619 -12.81,18.415 -5.66,11.213 -9.44,23.229 -14.47,34.772 -3.52,8.075 -8.38,15.371 -12.46,23.102 -2.54,4.82 -4.88,9.793 -7.391,14.638 -3.569,6.884 -7.006,13.763 -9.926,21.001 -1.429,3.542 -2.874,6.563 -2.336,10.434"
     fill="#090a0a"
     stroke-linecap="round"
     opacity="1"
     stroke-linejoin="round"
     id="path581" /><path
     stroke="#000000"
     stroke-width="26.27"
     d="m 1078.65,731.585 c 1.61,2.541 3.48,4.906 4.82,7.624 2.25,4.573 3.18,9.821 4.65,14.696 2.41,7.991 4.57,15.93 6.63,24.036 1.58,6.189 3.54,12.252 4.62,18.584 0.91,5.386 1.56,10.791 2.71,16.135 1.81,8.435 4.45,16.566 6.48,24.922 1.99,8.195 3.96,16.681 7.21,24.382 0.45,1.08 0.89,2.171 1.34,3.252 0.27,0.645 1.49,3.7 2.08,3.861 0.77,0.206 1.43,-0.733 2.11,-1.177 3.08,-2.021 4.47,-3.956 4.97,-7.931 0.37,-3.02 0.25,-8.513 0.27,-11.403 0.06,-7.221 0.35,-14.44 0.58,-21.657 0.13,-4.331 0.04,-8.673 0.34,-12.995 0.55,-8.015 1.61,-16.235 1.03,-24.314 -0.54,-7.489 -2.46,-15.17 -4.17,-22.39 -0.76,-3.19 -1.07,-6.525 -2.15,-9.604 -3.91,-11.134 -12.37,-21.843 -18.63,-31.741"
     fill="#090a0a"
     stroke-linecap="round"
     opacity="1"
     stroke-linejoin="round"
     id="path583" /><path
     stroke="#000000"
     stroke-width="26.27"
     d="m 1052.88,782.738 c 4.99,7.887 9.97,15.774 14.95,23.661 1.85,2.924 4.05,5.848 5.65,8.938 2.14,4.156 3.89,8.886 5.53,13.27 1.87,4.986 4.17,9.809 6.12,14.765 3.79,9.633 6.54,19.697 9.47,29.654 2.43,8.228 5.96,16.2 9.17,24.091 0.85,2.108 2.39,5.985 4.8,6.475 1.54,0.312 4.7,-1.196 5.52,-2.547 1.2,-1.997 0.02,-4.785 -0.25,-7.155 -1.11,-10.092 -4.78,-19.427 -6.77,-29.336 -1.93,-9.6 -4.03,-19.268 -5.79,-28.908 -2.78,-15.202 -4.15,-30.636 -6.88,-45.859 -1.85,-10.266 -4.66,-19.984 -7.52,-29.945 -1.61,-5.59 -3.05,-9.906 -6.12,-14.765"
     fill="#090a0a"
     stroke-linecap="round"
     opacity="1"
     stroke-linejoin="round"
     id="path585" /><path
     stroke="#000000"
     stroke-width="26.27"
     d="m 1040.75,806.404 c 8.29,13.12 17.37,25.756 25.16,39.255 2.78,4.821 4.54,10.283 6.86,15.373 1.7,3.72 3.97,7.113 5.99,10.613 2.08,3.58 3.62,7.662 5.43,11.416 2.08,4.282 2.85,9.013 3.99,13.644 0.74,3.005 1.67,5.791 2.06,8.897 0.53,4.18 1.53,8.007 2.58,11.984 0.18,0.685 -0.1,1.53 0.27,2.117 1.55,2.453 3.15,0.142 4.06,-1.467 1.65,-2.892 0.36,-7.896 0.21,-10.961 -0.27,-5.386 0.08,-10.654 -0.19,-16.08 -0.48,-9.769 -1.63,-19.223 -4.8,-28.479 -5.87,-17.129 -14.83,-32.817 -21.93,-49.371 -3.99,-9.288 -8.45,-17.753 -9.54,-28.063 -0.36,-3.515 -0.99,-6.35 1.54,-8.857"
     fill="#090a0a"
     stroke-linecap="round"
     opacity="1"
     stroke-linejoin="round"
     id="path587" /><path
     stroke="#000000"
     stroke-width="26.27"
     d="m 1044.82,826.94 c -6.17,9.331 -7.18,20.661 -8.86,31.664 -0.9,5.863 -1.51,11.402 -1.52,17.34 -0.01,5.112 1.51,9.712 4.16,13.907 0.55,0.876 0.75,2.233 1.66,2.629 1.01,0.443 2.19,-0.194 3.25,-0.485 3.35,-0.915 6.62,-3.333 9.74,-4.901 2.57,-1.295 5.18,-2.101 7.62,-3.724 5.91,-3.926 11.51,-8.535 17.23,-12.777 2.06,-1.524 6.96,-3.928 7.92,-6.644 1.18,-3.353 -5.95,-12.574 -7.2,-15.899 -0.91,-2.429 -1.04,-5.122 -1.63,-7.666 -1.64,-7.076 -2.01,-15.356 -0.34,-22.529 0.78,-3.333 2.28,-6.026 3.49,-9.148 1.47,-3.823 1.73,-7.954 4.27,-11.279 1.61,-2.105 4.83,-5.439 7.62,-4.873 4.71,0.956 11.78,12.706 12.67,17.24 0.54,2.754 0.28,6.205 0.35,9.009 0.13,6.185 -1.14,12.114 -1.67,18.226 -0.69,7.848 -1.38,15.727 -3.41,23.374 -1.03,3.866 -3.37,7.203 -4.44,11.016 -1.25,4.444 -1.07,9.271 -1.97,13.811 -0.91,4.565 -2.82,8.352 -3.11,13.12 -0.14,2.227 -0.41,5.423 0.16,7.597 0.17,0.621 0.7,1.115 0.76,1.758 0.14,1.494 -0.51,2.952 -0.77,4.428"
     fill="#090a0a"
     stroke-linecap="round"
     opacity="1"
     stroke-linejoin="round"
     id="path589" /><path
     stroke="#000000"
     stroke-width="26.27"
     d="m 1067.43,872.325 c -5.38,-8.53 -10.38,-23.88 -11.4,-34.4 -0.64,-6.738 0.91,-14.79 2.21,-21.326 1.11,-5.595 3.98,-10.719 5.94,-15.984 2.7,-7.268 4.74,-15.457 9.62,-21.424"
     fill="#090a0a"
     stroke-linecap="round"
     opacity="1"
     stroke-linejoin="round"
     id="path591" /><path
     stroke="#000000"
     stroke-width="5"
     d="m 1217.01,992.373 c 0.89,-0.639 2.05,-0.253 3.09,-0.173 3.03,0.233 5.6,1.442 8.47,2.374 1.17,0.38 2.29,0.903 3.51,1.006 0.17,0.014 0.46,0.232 0.5,0.057 0.06,-0.335 -2.21,-1.699 -2.45,-1.864 -1.76,-1.222 -3.56,-2.689 -4.72,-4.583 -0.06,-0.097 -1.03,-1.391 -0.85,-1.617 0.45,-0.557 1.73,0.264 2.11,0.455 1.74,0.867 3.29,1.893 4.57,3.461 0.36,0.448 0.51,0.713 0.79,1.16 0.08,0.134 0.12,0.489 0.25,0.4 0.66,-0.48 -0.03,-2.679 -0.16,-3.102 -0.58,-1.906 -1.47,-3.681 -2.13,-5.555 -0.14,-0.394 -0.33,-0.772 -0.42,-1.18 -0.05,-0.209 -0.2,-0.737 -0.02,-0.647 1.24,0.62 2.83,4.613 3.3,5.859 0.32,0.839 0.67,1.661 1.01,2.493 0.12,0.321 0.61,1.199 0.37,0.97 -1.49,-1.396 -2.04,-3.905 -2.34,-5.898 -0.08,-0.512 -0.15,-2.207 -0.15,-2.207 0.18,-0.13 0.38,0.28 0.46,0.494 0.11,0.282 0.06,0.611 0.11,0.913 0.29,1.862 0.65,3.705 0.98,5.557 0.13,0.725 0.26,1.452 0.43,2.169 0.04,0.205 0.28,1.238 0.1,1.161 -0.38,-0.173 -1.06,-1.638 -1.26,-2.055 -0.1,-0.204 -0.43,-1.159 -0.39,-1.122 0.43,0.364 0.61,0.989 0.91,1.483 0.84,1.35 1.55,2.275 1.06,3.939"
     fill="#090a0a"
     stroke-linecap="round"
     opacity="1"
     stroke-linejoin="round"
     id="path593" /><path
     stroke="#000000"
     stroke-width="5"
     d="m 1227.31,1006.87 c 1.22,0.14 2.43,0 3.64,0.09 1.18,0.09 2.35,0.35 3.53,0.42 0.81,0.05 1.68,-0.03 2.48,0.19 0.43,0.12 0.95,0.38 0.75,0.36 -0.5,-0.06 -0.97,-0.35 -1.47,-0.42 -2.23,-0.32 -4.53,-0.19 -6.73,-0.66 -0.87,-0.19 -1.74,-0.27 -2.62,-0.42 -0.21,-0.03 -0.41,-0.1 -0.61,-0.13 -0.14,-0.02 -0.54,-0.02 -0.41,-0.04 1.31,-0.18 2.67,0.77 3.92,1.04 1.56,0.34 3.34,0.39 4.92,0.32 0.84,-0.03 1.54,0.26 2.32,0.55 0.44,0.17 1.12,0.44 1.07,0.38 -0.67,-0.72 -2.23,-0.74 -3.09,-0.81 -1.87,-0.16 -4.03,-0.28 -5.84,-0.82 -1.53,-0.45 -3.05,-0.63 -4.6,-1.04 -0.38,-0.1 -0.76,-0.19 -1.14,-0.25 -0.13,-0.02 -0.38,-0.18 -0.4,-0.03 -0.09,0.48 2.3,1.04 2.67,1.12 1.12,0.24 2.44,0.54 3.58,0.62 0.81,0.06 1.62,-0.14 2.42,-0.02 0.7,0.11 1.25,0.43 1.97,0.48 1.09,0.06 2.05,0.05 3.13,0.38 0.27,0.08 1.08,0.4 0.81,0.32 -3.39,-1.03 -7.06,-1.16 -10.53,-1.63 -1.07,-0.15 -2.17,-0.27 -3.23,-0.55 -0.69,-0.19 -0.1,-0.15 -1.05,-0.23 -0.15,-0.01 -0.58,-0.1 -0.46,0 1.02,0.79 2.63,0.96 3.81,1.12 0.58,0.08 1.17,0.35 1.74,0.48 0.67,0.14 1.31,0.02 1.97,-0.02 1.25,-0.09 2.62,0.48 3.85,0.68 0.8,0.13 1.62,0.09 2.42,0.23 0.1,0.01 0.99,0.23 1.02,0.17 0.02,-0.04 -0.73,-0.31 -1.34,-0.44 -1.35,-0.29 -2.69,-0.32 -4.02,-0.72 -3.1,-0.93 -6.4,-1.67 -9.55,-2.17 -0.94,-0.14 -1.81,-0.68 -2.73,-0.83 -1.07,-0.18 -2.17,-0.32 -3.25,-0.46 -0.16,-0.02 -0.5,0.13 -0.49,-0.05 0.03,-0.63 1.81,-0.06 1.97,-0.02 1.57,0.39 3.14,1.19 4.71,1.46 1.07,0.18 1.91,0.72 2.97,0.99 1,0.25 1.96,0.41 2.96,0.74 0.98,0.32 1.92,0.05 2.9,0.13 0.73,0.06 1.44,0.56 2.16,0.66 0.53,0.08 1.1,-0.03 1.64,0.06 1.09,0.18 1.99,0.63 3.12,0.63"
     fill="#090a0a"
     stroke-linecap="round"
     opacity="1"
     stroke-linejoin="round"
     id="path595" /><path
     stroke="#000000"
     stroke-width="5"
     d="m 1048.78,994.156 c 0.49,-4.725 1.47,-13.728 2.99,-18.242 0.61,-1.826 1.54,-3.553 2.41,-5.264 0.2,-0.373 0.8,-0.767 0.58,-1.118 -0.2,-0.315 -1.43,1 -1.53,1.132 -0.81,1.164 -1.25,2.817 -1.66,4.183 -1.47,4.925 -2.47,9.856 -3.13,14.977 -0.07,0.54 0.23,5.394 0.34,4.332 z"
     fill="#090a0a"
     stroke-linecap="round"
     opacity="1"
     stroke-linejoin="round"
     id="path597" /><path
     stroke="#000000"
     stroke-width="5"
     d="m 1052.56,1003.39 c -0.99,-1.56 -2.92,-3.63 -3.44,-5.418 -0.93,-3.241 0.67,-7.572 1,-10.787 0.43,-4.104 0.33,-9.191 1.77,-13.095 1.91,-5.176 4.94,-9.857 7.01,-14.916 7.8,-19.061 15.29,-38.901 15.02,-60.026"
     fill="#090a0a"
     stroke-linecap="round"
     opacity="1"
     stroke-linejoin="round"
     id="path599" /><path
     stroke="#000000"
     stroke-width="5"
     d="m 1078.85,904.144 c 0.09,7.507 -2.95,14.381 -5.25,21.226 -5.19,15.482 -13.64,29.782 -19.82,44.89 -3.37,8.23 -6.23,19.659 -4.35,28.698 1.08,5.212 4.64,9.592 7.38,13.912"
     fill="#090a0a"
     stroke-linecap="round"
     opacity="1"
     stroke-linejoin="round"
     id="path601" /><path
     stroke="#000000"
     stroke-width="5"
     d="m 1077.34,1023.05 c 1.7,1.92 5.16,1.59 7.44,1.91 6.6,0.94 13.29,-0.78 19.83,-1.76 3.4,-0.52 6.89,-0.46 10.25,-1.23 7.48,-1.7 14.91,-3.66 22.42,-5.24 2.96,-0.63 6.16,-0.84 9.04,-1.88 12.76,-4.64 25.46,-9.06 38.55,-12.58"
     fill="#090a0a"
     stroke-linecap="round"
     opacity="1"
     stroke-linejoin="round"
     id="path603" /><path
     stroke="#000000"
     stroke-width="5"
     d="m 1184.21,1002.24 c -3.32,2.47 -6.48,2.31 -10.23,3.28 -1.5,0.39 -2.81,1.31 -4.22,1.93 -2.82,1.23 -6.11,1.38 -9.07,2.07 -2.02,0.47 -3.84,1.51 -5.83,1.91"
     fill="#090a0a"
     stroke-linecap="round"
     opacity="1"
     stroke-linejoin="round"
     id="path605" /><path
     stroke="#000000"
     stroke-width="5"
     d="m 1139.87,999.382 c 3.63,-2.7 7.36,-5.218 10.71,-8.319"
     fill="#090a0a"
     stroke-linecap="round"
     opacity="1"
     stroke-linejoin="round"
     id="path607" /><path
     stroke="#000000"
     stroke-width="5"
     d="m 1135.88,999.402 c 5.58,-4.146 10.86,-7.935 15.55,-13.302"
     fill="#090a0a"
     stroke-linecap="round"
     opacity="1"
     stroke-linejoin="round"
     id="path609" /><path
     stroke="#000000"
     stroke-width="5"
     d="m 1144.1,1001.26 c 4.95,-3.691 8.81,-8.909 10.29,-15.284"
     fill="#090a0a"
     stroke-linecap="round"
     opacity="1"
     stroke-linejoin="round"
     id="path611" /><path
     stroke="#000000"
     stroke-width="5"
     d="m 1140.16,999.338 c 4.47,-3.324 8.41,-8.166 11.68,-12.848"
     fill="#090a0a"
     stroke-linecap="round"
     opacity="1"
     stroke-linejoin="round"
     id="path613" /><path
     stroke="#000000"
     stroke-width="5"
     d="m 1142.2,998.515 c 3.93,-3.415 11.29,-11.877 10.33,-17.738"
     fill="#090a0a"
     stroke-linecap="round"
     opacity="1"
     stroke-linejoin="round"
     id="path615" /><path
     stroke="#000000"
     stroke-width="5"
     d="m 1140.24,999.97 c 2.85,-2.122 2.84,-7.6 3.23,-10.543 0.83,-6.24 -1.86,-11.762 -5,-16.716"
     fill="#090a0a"
     stroke-linecap="round"
     opacity="1"
     stroke-linejoin="round"
     id="path617" /><path
     stroke="#000000"
     stroke-width="25.69"
     d="m 1137.93,996.837 c -7.32,-4.389 -14.47,-9.107 -21.74,-13.614"
     fill="#090a0a"
     stroke-linecap="round"
     opacity="1"
     stroke-linejoin="round"
     id="path619" /><path
     stroke="#000000"
     stroke-width="25.69"
     d="m 1159.9,1007.05 c 1.45,-1.1 3.42,-0.01 5.04,-0.53 1.54,-0.5 2.6,-2.06 4.26,-2.48 1.82,-0.45 3.69,-0.67 5.52,-1.15 1.73,-0.45 3.17,-1.93 4.81,-2.65 0.95,-0.417 1.94,-0.322 2.91,-0.601 2.41,-0.696 4.82,-2.377 7.13,-3.529 1.82,-0.911 8,-4.105 9.59,-2.931"
     fill="#090a0a"
     stroke-linecap="round"
     opacity="1"
     stroke-linejoin="round"
     id="path621" /><path
     stroke="#000000"
     stroke-width="25.69"
     d="m 1045.02,946.606 c 3.76,-4.131 6.08,-9.288 9.03,-14.025 5.13,-8.257 8.88,-17.469 11.49,-26.982 1.68,-6.138 4.04,-11.754 4.23,-18.275"
     fill="#090a0a"
     stroke-linecap="round"
     opacity="1"
     stroke-linejoin="round"
     id="path623" /><path
     stroke="#000000"
     stroke-width="25.69"
     d="m 1038.72,957.049 c 2.27,-2.499 3.8,-4.986 5.64,-7.821"
     fill="#090a0a"
     stroke-linecap="round"
     opacity="1"
     stroke-linejoin="round"
     id="path625" /><path
     stroke="#000000"
     stroke-width="25.69"
     d="m 998.591,1007.93 c -1.605,2.44 -2.865,5.3 -4.719,7.54 -3.093,3.74 -7.571,5.55 -11.665,7.63 -4.99,2.54 -10.026,5.79 -15.527,6.78 -0.494,0.09 0.972,-0.27 1.43,-0.49 0.759,-0.36 1.516,-0.69 2.28,-1.04 2.443,-1.11 4.964,-1.83 7.363,-2.96 2.647,-1.25 5.856,-2.2 8.199,-4.05 2.888,-2.28 6.215,-6.1 9.722,-6.74"
     fill="#090a0a"
     stroke-linecap="round"
     opacity="1"
     stroke-linejoin="round"
     id="path627" /><path
     stroke="#000000"
     stroke-width="5"
     d="m 853.562,438.438 c -7.321,0.068 -14.775,0.47 -22.406,1.218 0.001,0.035 0,0.06 0,0.094 -2.125,-0.076 -4.337,-0.324 -6.437,-0.344 -3.421,-0.032 -6.748,0.094 -10.094,0.219 -1.056,0.646 -2.094,1.284 -3.125,1.781 -3.029,1.463 -6.004,2.462 -10.688,3.75 -0.324,0.089 -1.916,0.506 -2.124,0.563 -1.575,0.428 -2.363,0.685 -3.282,0.969 -1.284,1.59 -2.982,2.812 -5,3.437 -13.607,4.212 -21.304,17.603 -26.562,42.281 -3.616,16.975 -3.566,34.224 -0.344,53.5 2.413,14.449 5.785,27.036 13.25,51.438 0.173,0.304 0.412,0.547 0.562,0.875 9.798,21.452 21.854,43.227 36.657,66.687 1.354,2.146 2.745,4.375 4.343,7 0.632,1.037 3.808,6.301 4.157,6.875 5.279,8.733 9.304,14.776 13.125,20.063 0.01,0.655 0.053,1.281 0.062,1.937 0.837,0.745 1.865,1.727 2.906,2.75 0.068,-0.084 0.152,-0.196 0.219,-0.281 0.122,0.156 0.254,0.377 0.375,0.531 1.215,-1.829 2.325,-3.495 3.344,-4.875 0.061,-0.082 0.125,-0.108 0.188,-0.187 0.004,-0.307 0.026,-0.6 0.031,-0.907 3.816,-5.273 7.845,-11.296 13.125,-20.031 0.348,-0.575 3.525,-5.806 4.156,-6.843 1.599,-2.626 2.959,-4.855 4.312,-7 14.803,-23.461 26.89,-45.236 36.688,-66.688 0.15,-0.328 0.389,-0.572 0.562,-0.875 7.466,-24.402 10.806,-36.989 13.219,-51.437 3.221,-19.277 3.272,-36.526 -0.343,-53.5 -5.258,-24.679 -12.925,-38.07 -26.532,-42.282 -2.017,-0.624 -3.716,-1.847 -5,-3.437 -0.919,-0.283 -1.706,-0.54 -3.281,-0.969 -0.208,-0.056 -1.801,-0.473 -2.125,-0.562 -4.683,-1.288 -7.689,-2.288 -10.719,-3.75 -1.03,-0.498 -2.038,-1.136 -3.093,-1.782 -3.347,-0.125 -6.704,-0.251 -10.126,-0.218 z m 67.344,10.25 c 0.68,1.05 1.362,2.106 2,3.218 5.402,9.419 9.061,20.462 12.032,34.406 4.305,20.212 4.23,40.513 0.531,62.657 -2.581,15.448 -6.071,28.641 -13.469,52.906 1.972,0.487 3.826,1.591 5.312,3.313 16.301,18.863 33.196,34.894 51.563,48.718 2.141,1.614 4.36,3.209 7.437,5.375 0.436,0.307 2.768,1.956 2.876,2.031 11.422,8.015 16.972,12.296 23.282,18.626 6.49,6.51 11.38,12.898 17.09,21.968 9.71,-31.699 13.13,-48.54 12.91,-57.218 -2.57,-102.208 -48.584,-171.176 -121.564,-196 z m -163.5,0.968 c -72.98,24.826 -119.026,93.824 -121.594,196.032 -0.218,8.679 3.227,25.488 12.938,57.187 5.713,-9.07 10.574,-15.459 17.062,-21.969 6.31,-6.329 11.858,-10.611 23.282,-18.625 0.108,-0.076 2.47,-1.725 2.906,-2.031 3.077,-2.167 5.296,-3.76 7.438,-5.375 18.367,-13.824 35.23,-29.825 51.531,-48.687 1.487,-1.722 3.34,-2.856 5.312,-3.344 -7.397,-24.264 -10.888,-37.459 -13.469,-52.906 -3.699,-22.145 -3.742,-42.446 0.563,-62.657 2.97,-13.944 6.63,-24.988 12.031,-34.406 0.639,-1.113 1.322,-2.168 2,-3.219 z m 155.469,172.125 c -8.866,17.804 -19.166,35.897 -31.219,55 -1.281,2.031 -2.586,4.159 -4.125,6.688 -0.615,1.013 -3.773,6.231 -4.125,6.812 -8.288,13.708 -14.034,22.421 -20.218,29.969 1.32,3.033 2.531,6.549 4,11.125 0.081,0.254 0.092,0.253 0.312,0.937 1.925,6.005 2.856,8.597 4.219,11.25 7.899,15.389 17.452,31.126 28.875,47.907 5.589,8.211 11.042,14.394 23.968,27.875 0.083,0.086 0.073,0.068 0.157,0.156 14.039,14.639 20.16,21.608 26.75,31.438 3.986,5.947 6.512,11.471 9.375,19.968 16.154,-25.78 31.21,-50.198 34.218,-56.25 2.374,-4.769 24.008,-50.617 25.878,-56.031 3.74,-10.836 6.93,-20.429 9.9,-29.437 -0.74,-1.279 -0.52,-0.825 -1.59,-2.688 -8.69,-15.092 -13.65,-22.436 -21.031,-29.844 -5.155,-5.171 -9.993,-8.922 -20.438,-16.25 -0.106,-0.076 -2.491,-1.718 -2.937,-2.031 -3.243,-2.285 -5.616,-4.011 -7.969,-5.781 -19.281,-14.513 -36.991,-31.261 -54,-50.813 z m -147.469,0.969 c -17.008,19.552 -34.719,36.33 -54,50.844 -2.352,1.77 -4.725,3.464 -7.968,5.75 -0.446,0.313 -2.801,1.955 -2.907,2.031 -10.445,7.329 -15.283,11.078 -20.437,16.25 -7.384,7.408 -12.373,14.751 -21.063,29.844 -1.073,1.864 -0.821,1.409 -1.562,2.687 2.972,9.008 6.167,18.602 9.906,29.438 1.866,5.414 23.47,51.261 25.844,56.031 3.009,6.051 18.095,30.471 34.25,56.25 2.862,-8.497 5.389,-14.021 9.375,-19.969 6.59,-9.83 12.679,-16.767 26.718,-31.406 0.085,-0.088 0.106,-0.102 0.188,-0.188 12.927,-13.48 18.379,-19.663 23.969,-27.874 11.422,-16.781 20.944,-32.518 28.843,-47.907 1.363,-2.653 2.325,-5.246 4.25,-11.25 0.22,-0.684 0.201,-0.685 0.282,-0.937 1.469,-4.577 2.709,-8.093 4.031,-11.125 -6.184,-7.547 -11.961,-16.262 -20.25,-29.969 -0.352,-0.581 -3.51,-5.798 -4.125,-6.812 -1.54,-2.529 -2.844,-4.657 -4.125,-6.688 -12.053,-19.104 -22.353,-37.196 -31.219,-55 z m 74.188,131.5 c -0.099,2.325 -0.324,5.175 -0.469,7.656 -0.121,-2.145 -0.32,-4.657 -0.406,-6.687 -2.584,4.511 -4.383,7.547 -6.25,10.469 -0.546,0.854 -1.042,1.741 -2,3.406 -0.008,0.014 -0.29,0.509 -0.375,0.656 -3.55,6.156 -5.75,9.312 -9.5,12.562 -0.404,0.35 -0.847,0.602 -1.282,0.876 -4.566,7.447 -9.431,15.013 -14.718,22.781 -6.53,9.593 -12.498,16.379 -26.282,30.75 -0.083,0.087 -0.071,0.067 -0.156,0.156 -13.147,13.71 -18.692,20.025 -24.312,28.406 -3.55,5.295 -5.646,10.703 -9.25,22.625 -0.072,0.236 -0.145,0.428 -0.282,0.875 -0.843,2.793 -1.418,4.467 -2.093,6.563 17.686,27.918 33.99,53.248 35.125,54.156 21.308,17.084 13.368,41.31 61.281,45.25 0.062,-0.341 0.098,-0.599 0.25,-1.406 0.202,-1.068 0.199,-1.318 0.344,-2.125 0.092,0.497 0.077,0.575 0.187,1.156 0.152,0.807 0.188,1.064 0.25,1.406 47.913,-3.939 39.973,-28.166 61.282,-45.25 1.134,-0.908 17.47,-26.237 35.156,-54.156 -0.675,-2.096 -1.251,-3.77 -2.094,-6.563 -0.136,-0.447 -0.21,-0.67 -0.281,-0.906 -3.605,-11.922 -5.701,-17.299 -9.25,-22.594 -5.62,-8.381 -11.165,-14.695 -24.313,-28.406 -0.084,-0.088 -0.073,-0.069 -0.156,-0.156 C 886.217,821.379 880.217,814.593 873.688,805 868.401,797.233 863.566,789.666 859,782.219 c -0.434,-0.275 -0.878,-0.525 -1.281,-0.875 -3.751,-3.251 -5.951,-6.407 -9.5,-12.563 -0.085,-0.147 -0.398,-0.673 -0.407,-0.687 -0.957,-1.664 -1.453,-2.521 -2,-3.375 -1.867,-2.922 -3.635,-5.957 -6.218,-10.469 z"
     fill="#090a0a"
     stroke-linecap="round"
     opacity="1"
     stroke-linejoin="round"
     id="path629" /><path
     stroke="#000000"
     stroke-width="5"
     d="m 844.023,189.929 c -56.362,0 -75.927,61.343 -113.427,99.893 -39.043,40.137 -100.981,59.088 -94.878,120.945 10.632,107.771 84.383,-8.921 199.688,-2.985 4.418,0.228 8.509,-1.013 12.334,-3.263 -0.07,-16.773 0.072,-27.061 0.913,-37.989 0.282,-3.665 0.64,-7.11 1.265,-12.565 0.056,-0.488 0.105,-0.852 0.209,-1.753 0.979,-8.493 1.352,-12.266 1.601,-16.868 0.658,-12.12 0.657,-44.174 0.657,-44.237 -0.098,-21.573 -0.011,-31.201 0.577,-43.3 0.233,-4.808 0.65,-8.984 1.554,-16.591 0.034,-0.286 0.051,-0.512 0.112,-1.024 0.844,-7.095 1.175,-10.211 1.425,-14.006 0.418,-6.334 0.496,-12.927 0.337,-22.196 -3.721,-2.571 -7.814,-4.061 -12.367,-4.061 z"
     fill="#090a0a"
     stroke-linecap="round"
     opacity="1"
     stroke-linejoin="round"
     id="path631" /><path
     stroke="#000000"
     stroke-width="5"
     d="m 838.468,189.26 c 56.362,0 75.927,61.343 113.427,99.894 39.043,40.137 100.985,59.087 94.875,120.944 -10.63,107.772 -84.38,-8.92 -199.684,-2.985 -4.419,0.228 -8.51,-1.012 -12.335,-3.262 0.07,-16.773 -0.072,-27.062 -0.913,-37.99 -0.282,-3.664 -0.639,-7.109 -1.265,-12.564 -0.056,-0.489 -0.105,-0.853 -0.208,-1.753 -0.98,-8.493 -1.352,-12.267 -1.602,-16.869 -0.658,-12.12 -0.657,-44.173 -0.657,-44.237 0.098,-21.572 0.011,-31.201 -0.577,-43.3 -0.233,-4.807 -0.65,-8.983 -1.553,-16.591 -0.034,-0.285 -0.052,-0.512 -0.113,-1.024 -0.844,-7.095 -1.175,-10.21 -1.425,-14.005 -0.418,-6.334 -0.496,-12.928 -0.337,-22.197 3.721,-2.571 7.814,-4.061 12.367,-4.061 z"
     fill="#090a0a"
     stroke-linecap="round"
     opacity="1"
     stroke-linejoin="round"
     id="path633" /><path
     stroke="#000000"
     stroke-width="9.66"
     d="m 592.187,631.366 c -4.531,-52.097 -14.146,-74.686 -4.946,-98.374 7.405,-19.067 17.856,-40.622 26.862,-44.74 11.019,-5.039 16.487,-13.098 40.093,-9.991 26.039,3.427 14.087,6.334 -7.217,33.881 -12.428,16.072 -17.466,36.085 -21.249,53.428 -4.383,20.094 -6.059,45.288 -4.41,72.975 2.405,40.397 16.352,77.168 5.15,72.041 -88.157,-40.349 -71.392,-79.458 -134.925,-103.347 -7.793,-2.93 -10.817,-7.918 -7.461,-9.451 10.895,-4.977 26.043,-9.669 33.012,-22.301 5.242,-9.503 4.969,-21.395 8.823,-37.673 1.424,-6.017 11.558,0.114 20.328,1.297 14.486,1.954 26.157,-25.296 28.274,-27.48 2.119,-2.187 -4.296,22.522 -10.669,43.521 -1.726,5.688 -0.095,9.276 0.799,18.582 1.166,12.14 31.288,100.756 27.536,57.632 z"
     fill="#090a0a"
     stroke-linecap="round"
     opacity="1"
     stroke-linejoin="round"
     id="path635" /><path
     stroke="#000000"
     stroke-width="9.66"
     d="m 1084.32,632.088 c 4.53,-52.097 14.14,-74.686 4.94,-98.374 -7.4,-19.067 -17.85,-40.622 -26.86,-44.74 -11.02,-5.039 -16.49,-13.098 -40.09,-9.991 -26.042,3.428 -14.09,6.334 7.21,33.881 12.43,16.072 17.47,36.085 21.25,53.428 4.39,20.094 6.06,45.288 4.41,72.975 -2.4,40.397 -16.35,77.169 -5.15,72.042 88.16,-40.349 71.4,-79.459 134.93,-103.348 7.79,-2.93 10.82,-7.918 7.46,-9.451 -10.9,-4.977 -26.04,-9.669 -33.01,-22.301 -5.24,-9.502 -4.97,-21.395 -8.83,-37.672 -1.42,-6.017 -11.55,0.113 -20.32,1.296 -14.49,1.955 -26.16,-25.296 -28.28,-27.48 -2.12,-2.187 4.3,22.522 10.67,43.521 1.73,5.688 0.1,9.276 -0.8,18.582 -1.16,12.14 -31.29,100.756 -27.53,57.632 z"
     fill="#090a0a"
     stroke-linecap="round"
     opacity="1"
     stroke-linejoin="round"
     id="path637" /></g>
</svg>
