<?xml version="1.0" standalone="no"?>
<!DOCTYPE svg PUBLIC "-//W3C//DTD SVG 20010904//EN"
 "http://www.w3.org/TR/2001/REC-SVG-20010904/DTD/svg10.dtd">
<svg version="1.0" xmlns="http://www.w3.org/2000/svg"
 width="1600.000000pt" height="1600.000000pt" viewBox="0 0 1600.000000 1600.000000"
 preserveAspectRatio="xMidYMid meet">

<g transform="translate(0.000000,1600.000000) scale(0.100000,-0.100000)"
fill="#000000" stroke="none">
<path d="M8630 13994 c-187 -13 -340 -27 -440 -40 -697 -89 -1371 -316 -1930
-650 -297 -177 -495 -332 -743 -581 l-168 -169 92 -129 c50 -72 107 -151 126
-177 l34 -47 -100 -51 c-202 -104 -481 -287 -690 -454 -331 -265 -678 -627
-943 -987 -291 -395 -548 -851 -755 -1339 -75 -177 -233 -572 -233 -582 0 -3
36 -27 80 -52 44 -26 80 -49 80 -52 0 -4 -44 -70 -98 -148 -555 -798 -872
-1725 -932 -2723 -5 -95 -10 -313 -10 -486 l0 -314 92 -7 c50 -3 219 -6 375
-6 266 0 284 -1 279 -17 -25 -80 -81 -321 -110 -473 -102 -538 -144 -1052
-133 -1654 4 -186 9 -342 13 -345 12 -12 927 -6 1094 7 518 40 994 120 1373
228 16 5 17 -13 17 -279 0 -156 3 -325 6 -375 l7 -92 314 0 c611 0 1004 43
1480 160 626 155 1238 434 1759 801 62 44 114 79 118 79 3 0 26 -36 52 -80 40
-70 49 -80 68 -74 104 32 644 258 849 355 664 316 1192 682 1668 1158 363 364
614 697 827 1099 l54 103 32 -24 c57 -43 333 -237 338 -237 12 0 345 378 419
475 404 532 717 1234 878 1965 133 605 165 1244 90 1789 -111 799 -476 1672
-1023 2446 l-84 120 181 180 c100 99 360 356 578 571 l395 391 -350 357 -351
357 -577 -571 c-317 -313 -579 -570 -582 -570 -4 0 -79 49 -169 108 -882 588
-1789 936 -2667 1022 -110 11 -585 21 -680 14z m660 -1019 c683 -82 1396 -364
2100 -830 391 -258 430 -293 627 -562 551 -755 876 -1514 965 -2258 16 -139
16 -600 -1 -755 -55 -518 -161 -939 -345 -1370 -77 -180 -208 -435 -223 -435
-15 0 -140 145 -239 275 -340 448 -558 958 -638 1495 -29 186 -36 368 -36 861
l0 492 -336 -204 c-475 -289 -510 -309 -638 -364 -334 -143 -886 -259 -1410
-296 l-99 -7 7 99 c38 536 161 1110 308 1437 50 111 86 174 350 607 l204 335
-575 6 c-561 7 -631 10 -832 43 -587 95 -1156 371 -1647 799 l-93 81 23 18
c47 37 438 226 568 275 403 153 793 238 1250 273 158 12 558 4 710 -15z
m-2825 -1616 c513 -381 1074 -639 1659 -765 66 -14 126 -27 133 -29 9 -3 7
-22 -8 -72 -39 -134 -78 -301 -109 -458 -17 -88 -33 -169 -35 -180 -6 -28
-248 -171 -515 -304 -580 -288 -1165 -468 -1750 -538 -203 -24 -632 -24 -825
0 -227 29 -428 72 -620 134 -74 24 -236 83 -243 88 -6 5 118 243 207 397 232
402 445 682 751 989 301 302 580 508 918 679 86 44 304 138 322 140 3 0 55
-37 115 -81z m1549 -3346 c1 -2 140 -6 308 -9 l306 -7 -50 -106 c-214 -456
-388 -976 -483 -1440 -14 -69 -31 -129 -38 -133 -131 -83 -518 -265 -803 -377
-531 -208 -1165 -365 -1648 -407 l-79 -7 7 74 c11 117 53 392 81 534 120 604
320 1174 607 1736 l100 197 112 21 c434 86 977 266 1426 475 l135 62 8 -305
c5 -168 10 -307 11 -308z m2580 114 c111 -532 370 -1114 701 -1572 52 -71 105
-146 120 -166 l25 -36 -35 -94 c-51 -132 -160 -346 -249 -488 -156 -250 -299
-425 -535 -661 -307 -306 -587 -519 -989 -751 -155 -90 -391 -213 -397 -207
-2 2 -24 62 -50 133 -79 218 -141 487 -176 770 -20 154 -17 598 5 780 69 590
247 1171 537 1755 83 167 261 485 284 509 2 1 73 16 158 32 143 27 413 91 517
123 25 8 48 11 51 7 4 -3 19 -64 33 -134z m-6470 62 c324 -99 599 -152 968
-187 l77 -7 -50 -115 c-180 -415 -334 -882 -429 -1300 -23 -102 -43 -189 -45
-195 -3 -11 -155 -78 -270 -120 -208 -75 -575 -156 -905 -199 -220 -29 -430
-50 -436 -43 -2 2 3 51 11 108 92 659 337 1289 713 1834 123 179 203 277 221
270 8 -3 74 -24 145 -46z m378 -3315 l-4 -376 376 4 c207 1 376 0 376 -4 0 -5
-16 -68 -35 -140 -19 -73 -50 -214 -69 -312 -20 -99 -39 -183 -43 -187 -5 -4
-51 -25 -103 -47 -313 -131 -741 -225 -1259 -277 -85 -8 -170 -15 -189 -15
l-35 0 7 98 c12 172 47 436 86 646 50 272 153 623 228 776 l37 74 215 43 c118
23 253 53 300 66 47 14 92 25 100 26 13 1 15 -45 12 -375z m3492 254 c3 -18
10 -87 16 -153 24 -253 88 -560 174 -835 24 -80 47 -152 51 -161 4 -11 -21
-36 -92 -90 -606 -463 -1287 -743 -2076 -854 l-49 -7 7 79 c34 399 103 806
184 1091 62 215 159 452 186 452 32 0 378 85 555 136 313 90 611 197 930 333
52 22 98 41 102 41 4 0 9 -15 12 -32z"/>
</g>
</svg>
